<?xml version="1.0" encoding="UTF-8"?>
<svg id="_圖層_1" data-name="圖層_1" xmlns="http://www.w3.org/2000/svg" version="1.1" viewBox="0 0 1417.323 1417.323">
  <!-- Generator: Adobe Illustrator 30.3.0, SVG Export Plug-In . SVG Version: 2.1.3 Build 182)  -->
  <defs>
    <style>
      .st0 {
        fill: none;
        stroke: #000;
        stroke-miterlimit: 10;
      }

      .st1 {
        fill: #103057;
      }
    </style>
  </defs>
  <line class="st0" x1="862.737" y1="295.47" x2="888.609" y2="295.47"/>
  <g>
    <g>
      <g>
        <path class="st1" d="M840.596,978.15c.604-1.463.975-2.717,1.44-4.221h11.057c-.883,3.386-1.905,6.436-3.252,9.78-8.177,1.087-16.214,1.547-24.157,1.547s-15.796-.46-23.555-1.547c.419-4.765,1.162-9.195,2.277-13.96,1.115-4.766,2.508-9.195,4.321-13.961,8.269-1.086,16.353-1.546,24.296-1.546s15.749.334,23.507,1.212c-.279,3.51-.696,6.687-1.439,10.073h-11.104c.279-1.421.465-2.717.604-4.18-4.274-.46-8.734-.543-13.101-.543-4.414,0-9.105.083-13.565.543-.976,2.885-1.765,5.518-2.463,8.402-.696,2.884-1.114,5.517-1.533,8.401,4.274.46,8.92.544,13.333.544,4.367,0,8.873-.084,13.333-.544Z"/>
        <path class="st1" d="M875.384,984.796h-9.709l6.225-26.375-4.554-3.009.186-.71h28.432c7.014,0,15.888.083,22.857.877-.14,2.968-.326,5.768-1.023,8.736-.836,3.47-1.812,7.064-3.577,10.742-3.485.167-7.387.46-11.197.586l10.685,9.153h-12.403l-16.353-13.835.185-.878h5.157c5.76,0,10.778-.041,15.795-.25.604-1.631,1.114-3.219,1.487-4.85.371-1.588.604-2.925.743-4.472-4.506-.167-8.687-.167-13.751-.167h-13.38l-5.808,24.451Z"/>
        <path class="st1" d="M954.817,954.409h1.44c3.949,0,7.526.084,11.661.418l8.641,29.969h-9.756l-1.904-6.311h-28.664l-4.832,6.311h-9.755l19.93-26.291-4.554-2.842.14-.752c5.296-.251,11.568-.502,17.653-.502ZM949.799,960.887l-8.966,11.621h22.253l-3.438-11.621c-1.114-.083-3.345-.167-4.878-.167s-3.717.084-4.971.167Z"/>
        <path class="st1" d="M988.132,984.796l6.225-26.375-4.6-2.842.186-.752c5.481-.167,13.193-.418,20.813-.544h.79c2.043,0,4.087-.041,6.085-.041,7.247,0,14.124.125,21.23.585l-1.487,6.269c-5.249-.501-11.567-.543-17.561-.543-4.739,0-10.917.083-16.307.418l-1.812,7.69h23.415l-1.3,5.559h-23.461l-2.462,10.575h-9.756Z"/>
        <path class="st1" d="M1093.151,961.347c-9.849-.334-15.145-.46-18.955-.502l-5.62,23.951h-10.175l5.621-23.951c-3.81.042-9.245.168-19.186.502l1.487-6.478c8.222-.418,16.307-.586,24.344-.586,8.083,0,16.074.168,24.064.586l-1.579,6.478Z"/>
        <path class="st1" d="M1110.287,984.796h-9.756l6.225-26.375-4.554-3.009.186-.71h15.005l-7.107,30.094Z"/>
        <path class="st1" d="M1175.372,984.734h-10.128l-18.909-23.407c-1.533-.083-3.066-.125-4.739-.125l-5.528,23.532h-10.128l6.178-26.249-4.691-3.135.185-.71h6.876c6.225,0,12.126.125,19.42.502l14.122,17.931,4.367-18.433h10.081l-7.108,30.094Z"/>
        <path class="st1" d="M1229.346,978.046c.558-1.003,1.069-2.717,1.765-5.476h-10.545l1.208-5.099h20.905c-2.137,8.736-3.577,13.083-4.971,16.468-8.269.919-16.353,1.254-24.39,1.254s-15.98-.335-23.832-1.254c.465-4.849,1.162-9.404,2.323-14.253,1.162-4.932,2.602-9.655,4.46-14.587,8.27-.668,16.353-.919,24.39-.919,8.27,0,16.493.209,24.53.877l-1.44,6.227c-6.272-.46-13.705-.543-20.024-.543-5.899,0-13.147.041-19.094.543-1.022,2.885-1.812,5.518-2.508,8.402-.698,2.884-1.069,5.517-1.44,8.36,4.367.501,9.71.585,14.216.585,4.46,0,9.895-.084,14.448-.585Z"/>
      </g>
      <g>
        <path class="st1" d="M811.695,1022.828l3.902.168c.186,3.009-.139,5.935-.836,8.945-.696,3.009-1.718,5.894-3.345,8.945-7.898.293-16.074.46-23.74.46-5.156,0-12.126-.293-23.228-.46l6.225-26.375-4.646-2.967.14-.71c7.201-.293,17.468-.377,26.992-.377,6.55,0,13.565.042,20.301.335.279,2.717.139,5.35-.465,7.983-.325,1.379-.743,2.717-1.3,4.054ZM774.994,1036.037c4.46.251,8.687.335,13.844.335,5.529,0,10.36-.084,15.191-.251.604-1.422,1.023-2.717,1.348-4.18.325-1.421.604-2.759.604-4.18-3.531-.167-7.154-.167-10.964-.167h-18.026l-1.997,8.443ZM778.199,1022.453h16.864c2.23,0,4.414,0,7.015-.126.464-1.212.929-2.34,1.208-3.552.279-1.212.371-2.131.464-3.344-3.716-.168-7.433-.168-11.753-.168-4.506,0-8.27.126-12.079.251l-1.719,6.939Z"/>
        <path class="st1" d="M836.634,1040.885h-9.709l6.225-26.375-4.554-3.009.186-.71h28.432c7.014,0,15.888.083,22.857.877-.14,2.968-.326,5.768-1.023,8.736-.836,3.47-1.812,7.064-3.577,10.742-3.485.167-7.387.46-11.197.586l10.685,9.153h-12.403l-16.353-13.835.185-.878h5.157c5.76,0,10.778-.041,15.795-.25.604-1.631,1.114-3.219,1.487-4.85.371-1.588.604-2.925.743-4.472-4.506-.167-8.687-.167-13.751-.167h-13.38l-5.808,24.451Z"/>
        <path class="st1" d="M899.25,1040.885h-9.756l6.225-26.375-4.554-3.009.186-.71h15.005l-7.107,30.094Z"/>
        <path class="st1" d="M920.433,1016.35l.465-1.84-4.554-3.009.186-.71h15.005l-1.347,5.559c-1.348,5.81-2.741,12.33-3.81,18.14,3.577.46,7.479.544,11.15.544s7.618-.084,11.382-.544c.511-1.212.929-2.424,1.254-3.594h9.802c-.883,3.177-1.904,6.145-3.252,9.53-7.062.71-13.891.919-20.673.919-6.923,0-13.473-.209-20.255-.919,1.16-7.774,2.833-16.301,4.645-24.076Z"/>
        <path class="st1" d="M975.768,1016.35l.465-1.84-4.554-3.009.186-.71h15.005l-1.347,5.559c-1.348,5.81-2.741,12.33-3.81,18.14,3.577.46,7.479.544,11.15.544s7.618-.084,11.382-.544c.511-1.212.929-2.424,1.254-3.594h9.802c-.883,3.177-1.904,6.145-3.252,9.53-7.062.71-13.891.919-20.673.919-6.923,0-13.473-.209-20.255-.919,1.16-7.774,2.833-16.301,4.645-24.076Z"/>
        <path class="st1" d="M1035.1,1040.885h-9.756l6.225-26.375-4.554-3.009.186-.71h15.005l-7.107,30.094Z"/>
        <path class="st1" d="M1077.095,1010.498h1.44c3.949,0,7.526.084,11.661.418l8.641,29.969h-9.756l-1.904-6.311h-28.664l-4.832,6.311h-9.755l19.93-26.291-4.554-2.842.14-.752c5.296-.251,11.568-.502,17.653-.502ZM1072.078,1016.976l-8.966,11.621h22.253l-3.438-11.621c-1.114-.083-3.345-.167-4.878-.167s-3.716.084-4.971.167Z"/>
        <path class="st1" d="M1160.073,1040.885h-10.128l-18.909-23.407c-1.533-.083-3.066-.125-4.739-.125l-5.528,23.532h-10.128l6.178-26.249-4.691-3.135.185-.71h6.876c6.225,0,12.126.125,19.42.502l14.122,17.931,4.367-18.433h10.081l-7.108,30.094Z"/>
        <path class="st1" d="M1212.7,1034.239c.604-1.463.975-2.717,1.44-4.221h11.057c-.883,3.386-1.905,6.436-3.252,9.78-8.177,1.087-16.214,1.547-24.157,1.547s-15.796-.46-23.555-1.547c.419-4.765,1.162-9.195,2.277-13.96,1.115-4.766,2.508-9.195,4.321-13.961,8.269-1.086,16.353-1.546,24.296-1.546s15.749.334,23.507,1.212c-.279,3.51-.696,6.687-1.439,10.073h-11.104c.279-1.421.465-2.717.604-4.18-4.274-.46-8.734-.543-13.101-.543-4.414,0-9.105.083-13.565.543-.976,2.885-1.765,5.518-2.463,8.402-.696,2.884-1.114,5.517-1.533,8.401,4.274.46,8.92.544,13.333.544,4.367,0,8.873-.084,13.333-.544Z"/>
        <path class="st1" d="M1284.281,1034.699l-1.44,6.062c-7.387.418-14.448.585-21.648.585-7.852,0-15.843-.167-23.461-.585l6.225-26.25-4.6-2.842.186-.752c5.156-.167,13.426-.418,21.23-.502h.419c2.833-.042,5.62-.083,8.362-.083h.231c6.737,0,13.241.167,19.977.585l-1.44,6.061c-5.808-.46-12.822-.585-18.722-.585-5.343,0-11.104.125-16.399.209l-1.673,6.98h24.483l-1.022,4.556h-24.53l-1.625,6.855c5.714.168,11.847.293,17.514.293s12.218-.125,17.932-.586Z"/>
      </g>
    </g>
    <g>
      <path class="st1" d="M430.934,408.289c.013-.046.025-.095.037-.142,9.152,19.627,29.048,33.236,52.132,33.236h202.893l-4.16,6.521-.385-.205-20.9,33.565-27.391,42.925c11.409,9.581,21.482,20.954,29.756,33.947l55.99,87.91,26.366-42.345,136.266-213.81c9.986-14.229,23.709-30.555,42.251-46.157,34.428-28.969,69.28-41.829,90.053-47.737H286.903c20.773,5.908,55.625,18.769,90.053,47.737,27.265,22.942,44.133,47.463,53.978,64.556Z"/>
      <path class="st1" d="M474.945,924.048v-.002h8.49c-.007-.027-.013-.055-.022-.083,32.994-.862,63.919-15.175,85.83-39.193l.277-.481.78.415,36.268-58.244-81.389-127.794-12.161,19.53-.161-.26-27.12,44.074-36.354,58.382.184.098-3.792,5.955c-4.937,7.316-10.889,15.285-18.026,23.498l-29.243-45.916c-21.547-33.836-58.482-54.656-98.447-55.7.003-.017.008-.034.012-.051H127.559c20.775,5.908,55.625,18.77,90.053,47.738,20.176,16.976,34.647,34.809,44.802,49.866l6.959,10.927c.772,1.287,1.517,2.549,2.216,3.764.018-.067.035-.134.053-.202l40.352,63.361c-.35.102-.73.218-1.072.315h1.275v.002h162.747Z"/>
      <path class="st1" d="M942.92,526.754c.005.018.009.036.013.053-39.893,1.105-76.745,21.914-98.26,55.698l-99.24,155.825-105.458-165.586c-22.115-34.725-60.433-55.751-101.603-55.751h-96.65l222.337,349.108-91.159,143.135c-.017-.067-.034-.135-.051-.202-.701,1.217-1.447,2.48-2.22,3.769l-6.954,10.919c-10.156,15.057-24.627,32.892-44.804,49.869-34.428,28.969-69.28,41.83-90.054,47.738h172.513c-.004-.017-.008-.034-.013-.05,39.965-1.044,76.899-21.864,98.448-55.7l283.363-444.93c9.986-14.229,23.71-30.555,42.25-46.155,34.428-28.969,69.279-41.83,90.054-47.738h-172.513Z"/>
    </g>
  </g>
</svg>