<?xml version="1.0" encoding="UTF-8"?>
<svg id="_圖層_1" data-name="圖層_1" xmlns="http://www.w3.org/2000/svg" version="1.1" viewBox="0 0 1417.323 1417.323">
  <!-- Generator: Adobe Illustrator 30.3.0, SVG Export Plug-In . SVG Version: 2.1.3 Build 182)  -->
  <defs>
    <style>
      .st0 {
        fill: #f3f7fa;
      }
    </style>
  </defs>
  <g>
    <path class="st0" d="M166.39,1157.684h15.083c-.787,3.562-1.816,7.198-3.082,10.908-1.268,3.712-3.039,7.386-5.312,11.022-2.275,3.636-5.181,7.045-8.722,10.226-3.541,3.182-7.935,6.022-13.181,8.522-.525-1.061-1.334-2.255-2.427-3.579-1.094-1.324-2.252-2.631-3.476-3.92-1.225-1.287-2.406-2.273-3.541-2.954,4.459-1.893,8.132-4.071,11.017-6.533,2.885-2.461,5.246-5.074,7.082-7.84,1.836-2.764,3.256-5.511,4.263-8.237,1.004-2.727,1.771-5.264,2.295-7.613ZM249.676,1136.777l11.673,9.999c-6.996,1.136-14.821,2.179-23.477,3.125-8.657.948-17.641,1.724-26.953,2.329-9.312.607-18.559,1.099-27.74,1.477-9.181.38-17.838.645-25.969.795-.701-1.136-1.596-2.499-2.689-4.09-1.095-1.591-2.209-3.162-3.345-4.716-1.137-1.552-2.187-2.821-3.148-3.806,8.568.076,17.51.039,26.822-.114,9.312-.151,18.536-.455,27.674-.909,9.136-.454,17.75-1.023,25.838-1.705,8.087-.682,15.192-1.477,21.313-2.386ZM151.045,1100.758h106.501v32.724h-106.501v-32.724ZM166.128,1112.575v8.976h15.214v-8.976h-15.214ZM167.702,1177.341l8.001-8.749c2.099,1.289,4.349,2.747,6.755,4.375,2.404,1.63,4.699,3.238,6.886,4.829,2.185,1.59,3.935,3.03,5.246,4.318l-8.263,9.658c-1.311-1.363-3.016-2.878-5.115-4.545-2.099-1.666-4.328-3.389-6.689-5.17-2.361-1.779-4.636-3.352-6.82-4.716ZM195.77,1112.575v8.976h15.608v-8.976h-15.608ZM196.556,1152.57l9.706-8.522,5.902,1.477v58.517h-15.608v-51.472ZM233.674,1155.07h15.345c-.613,3.789-1.531,7.669-2.754,11.647-1.226,3.977-2.908,7.897-5.05,11.76-2.144,3.863-4.898,7.519-8.263,10.965-3.367,3.447-7.63,6.533-12.788,9.26-1.049-1.667-2.537-3.579-4.459-5.738-1.924-2.159-3.804-3.844-5.64-5.056,4.371-1.969,7.978-4.298,10.821-6.988,2.84-2.688,5.115-5.529,6.82-8.522,1.705-2.991,2.994-5.983,3.869-8.976.873-2.991,1.574-5.775,2.099-8.351ZM225.674,1112.575v8.976h16.002v-8.976h-16.002ZM244.954,1166.887c1.398,2.122,3.213,4.488,5.443,7.102,2.23,2.613,4.742,5.095,7.542,7.443,2.797,2.349,5.64,4.357,8.525,6.022-1.049.682-2.23,1.61-3.541,2.784-1.312,1.175-2.58,2.386-3.804,3.636-1.226,1.25-2.23,2.404-3.017,3.465-2.974-2.045-5.881-4.563-8.722-7.556-2.843-2.991-5.423-6.059-7.738-9.203-2.318-3.143-4.177-5.926-5.574-8.352l10.886-5.34Z"/>
    <path class="st0" d="M350.011,1119.506l11.542,1.363c-.262,3.258-.656,6.818-1.18,10.681-.525,3.863-1.203,7.669-2.033,11.419-.832,3.75-1.77,7.101-2.82,10.056l-11.804-3.636c.961-2.574,1.857-5.585,2.689-9.033.83-3.446,1.574-6.988,2.23-10.624.656-3.636,1.115-7.045,1.377-10.226ZM361.421,1097.008h15.083v106.694h-15.083v-106.694ZM373.75,1117.119l8.657-2.613c1.135,2.349,2.207,4.868,3.213,7.556,1.004,2.69,1.879,5.266,2.623,7.726.742,2.462,1.289,4.641,1.639,6.533l-9.181,3.182c-.351-1.893-.875-4.128-1.574-6.704-.701-2.574-1.508-5.244-2.426-8.011-.918-2.764-1.902-5.321-2.951-7.67ZM406.54,1161.661h15.608c-.701,5.985-1.881,11.609-3.541,16.873-1.662,5.266-4.459,10.019-8.394,14.26-3.935,4.242-9.575,7.878-16.919,10.908-.613-1.136-1.465-2.368-2.558-3.693-1.094-1.326-2.23-2.633-3.41-3.92-1.18-1.289-2.383-2.312-3.607-3.068,6.119-2.347,10.733-5.094,13.837-8.238,3.103-3.142,5.246-6.684,6.427-10.624,1.18-3.938,2.033-8.105,2.558-12.499ZM410.212,1098.03l14.558,3.75c-2.361,4.167-5.094,8.277-8.197,12.328-3.105,4.054-6.384,7.822-9.837,11.306-3.455,3.485-6.931,6.553-10.427,9.203-.875-.833-2.033-1.798-3.476-2.897-1.443-1.097-2.931-2.196-4.46-3.295-1.531-1.097-2.865-1.949-4-2.557,5.158-3.332,10.034-7.499,14.624-12.499,4.591-4.999,8.329-10.113,11.214-15.339ZM397.097,1126.209h57.054v37.269h-57.054v-37.269ZM412.049,1138.14v13.407h26.494v-13.407h-26.494ZM428.05,1160.183h15.739v25.906c0,1.667.152,2.709.459,3.125.305.417.984.625,2.033.625h5.902c.873,0,1.508-.321,1.902-.966.393-.642.699-1.969.918-3.977.217-2.006.371-5.017.459-9.033,1.049.682,2.381,1.363,4,2.045,1.617.682,3.3,1.289,5.05,1.818,1.748.531,3.279.985,4.591,1.363-.351,5.454-1.095,9.697-2.23,12.726-1.137,3.029-2.734,5.15-4.787,6.363-2.055,1.211-4.787,1.818-8.197,1.818h-10.362c-4.197,0-7.41-.494-9.64-1.477-2.23-.986-3.761-2.633-4.591-4.943-.832-2.31-1.246-5.397-1.246-9.26v-26.134ZM429.362,1104.166l10.886-6.363c3.322,2.803,6.755,5.928,10.296,9.374,3.541,3.448,6.841,6.857,9.903,10.226,3.06,3.371,5.509,6.383,7.345,9.033l-12.067,7.613c-1.574-2.727-3.826-5.832-6.755-9.317-2.931-3.483-6.121-7.025-9.574-10.624-3.455-3.597-6.8-6.911-10.034-9.942Z"/>
    <path class="st0" d="M550.419,1176.205h119.879v12.385h-119.879v-12.385ZM553.698,1106.439h112.665v12.271h-112.665v-12.271ZM563.535,1124.164h92.991v46.018h-92.991v-46.018ZM578.75,1135.186v6.817h61.907v-6.817h-61.907ZM578.75,1152.229v6.931h61.907v-6.931h-61.907ZM601.44,1097.122h16.264v106.807h-16.264v-106.807Z"/>
    <path class="st0" d="M766.042,1104.62h15.477v40.905c0,4.47-.219,9.356-.656,14.658-.439,5.303-1.291,10.624-2.558,15.964-1.268,5.34-3.148,10.436-5.64,15.283s-5.75,9.165-9.771,12.953c-.787-.909-1.967-1.931-3.541-3.068-1.574-1.136-3.17-2.235-4.787-3.295-1.619-1.062-2.996-1.894-4.131-2.5,3.584-3.409,6.427-7.176,8.525-11.305,2.099-4.128,3.65-8.408,4.656-12.84,1.004-4.431,1.66-8.863,1.967-13.294.305-4.431.459-8.653.459-12.669v-40.792ZM774.83,1157.684h81.45v12.839h-81.45v-12.839ZM775.092,1104.62h80.4v13.067h-80.4v-13.067ZM775.092,1130.868h80.662v12.726h-80.662v-12.726ZM806.439,1109.847h15.87v92.491h-15.87v-92.491ZM849.984,1104.62h15.739v83.06c0,3.636-.524,6.457-1.574,8.465-1.049,2.006-2.931,3.54-5.64,4.602-2.623,1.06-5.99,1.742-10.099,2.045-4.111.302-9.181.415-15.214.341-.262-1.818-.918-4.016-1.967-6.59-1.049-2.576-2.099-4.733-3.148-6.477,2.535.076,5.07.133,7.607.171,2.535.039,4.787.056,6.755.056h4.263c1.224,0,2.076-.188,2.558-.568.48-.378.722-1.097.722-2.159v-82.946Z"/>
    <path class="st0" d="M965.14,1151.889l9.837,2.954c-.875,4.167-2.033,8.541-3.476,13.124-1.443,4.584-3.148,8.882-5.115,12.896-1.967,4.016-4.263,7.386-6.886,10.113-.613-2.046-1.553-4.431-2.82-7.159-1.268-2.727-2.472-5.037-3.607-6.931,1.748-1.969,3.41-4.336,4.984-7.102,1.574-2.764,2.994-5.718,4.263-8.862,1.266-3.143,2.207-6.154,2.82-9.033ZM954.909,1106.779l10.886-2.272c1.224,3.863,2.427,8.03,3.607,12.498,1.18,4.471,2.033,8.334,2.558,11.59l-11.411,2.613c-.262-2.196-.701-4.696-1.312-7.499-.613-2.801-1.291-5.681-2.033-8.635-.744-2.954-1.508-5.718-2.295-8.295ZM955.172,1134.959h44.725v12.726h-44.725v-12.726ZM972.091,1097.122h13.772v106.694h-13.772v-106.694ZM991.371,1152.229c.611.607,1.574,1.667,2.885,3.182,1.312,1.516,2.709,3.182,4.197,4.999,1.486,1.818,2.841,3.505,4.066,5.056,1.223,1.554,2.053,2.67,2.492,3.352l-9.968,9.771c-.613-1.438-1.4-3.124-2.361-5.056-.963-1.931-2.033-3.938-3.214-6.022-1.18-2.083-2.295-4.014-3.345-5.795-1.049-1.779-2.012-3.275-2.885-4.488l8.132-5ZM992.683,1104.734l12.853,3.522c-1.226,2.653-2.492,5.417-3.804,8.295-1.311,2.88-2.558,5.624-3.738,8.238-1.18,2.613-2.34,4.905-3.476,6.874l-9.575-3.068c.961-2.196,1.945-4.676,2.951-7.443,1.004-2.764,1.922-5.605,2.754-8.522.83-2.915,1.508-5.548,2.033-7.897ZM1008.553,1148.139h14.165v20.566c0,3.789-.285,7.86-.853,12.215-.57,4.357-1.705,8.618-3.41,12.783s-4.177,7.84-7.411,11.022c-.701-.834-1.75-1.818-3.148-2.954-1.4-1.136-2.799-2.255-4.197-3.352-1.4-1.099-2.623-1.875-3.673-2.329,2.623-2.727,4.546-5.662,5.771-8.806,1.224-3.143,1.988-6.344,2.295-9.601.305-3.256.459-6.324.459-9.204v-20.339ZM1002.389,1133.595h74.892v9.772h-74.892v-9.772ZM1004.356,1105.416h71.219v9.658h-71.219v-9.658ZM1007.635,1119.619h65.317v9.09h-65.317v-9.09ZM1016.816,1163.365h45.774v8.863h-45.774v-8.863ZM1016.816,1177.682h45.774v8.863h-45.774v-8.863ZM1017.21,1148.139h43.282v9.999h-43.282v-9.999ZM1031.637,1097.008h15.214v42.041h-15.214v-42.041ZM1056.426,1148.139h14.69v43.291c0,2.878-.416,5.113-1.246,6.704-.832,1.591-2.34,2.841-4.525,3.75-2.187.833-4.853,1.363-8.001,1.591-3.148.227-6.82.302-11.017.227-.351-1.667-.918-3.504-1.705-5.511-.787-2.008-1.574-3.769-2.361-5.284,2.447.077,4.853.114,7.214.114h4.721c.873,0,1.463-.132,1.771-.398.305-.265.459-.699.459-1.307v-43.177Z"/>
    <path class="st0" d="M1162.401,1152.343h50.234v50.791h-15.739v-37.724h-19.543v38.405h-14.952v-51.472ZM1168.959,1184.954h34.495v13.067h-34.495v-13.067ZM1180.501,1101.553h77.383v41.246h-77.383v-41.246ZM1195.715,1114.62v15.226h46.168v-15.226h-46.168ZM1223.652,1152.343h51.939v50.904h-15.739v-37.837h-21.116v38.405h-15.083v-51.472ZM1230.865,1184.954h36.725v13.067h-36.725v-13.067Z"/>
  </g>
  <g>
    <g>
      <path class="st0" d="M861.292,789.318l5.462,1.172c-2.2,3.065-4.629,6.072-7.286,9.021-2.657,2.949-5.548,5.755-8.673,8.415-3.125,2.661-6.525,5.111-10.199,7.351-3.673,2.241-7.629,4.186-11.864,5.835-.087-.376-.234-.81-.442-1.302-.208-.492-.425-.982-.65-1.475-.226-.491-.44-.91-.643-1.257,3.84-1.417,7.438-3.145,10.797-5.183,3.358-2.039,6.472-4.272,9.343-6.701,2.87-2.43,5.486-4.995,7.847-7.699,2.361-2.703,4.463-5.428,6.308-8.176ZM836.421,796.518h35.12l-1.414,4.207h-35.111l1.406-4.207ZM835.797,817.945l4.309,1.257c-.771,1.244-1.632,2.495-2.584,3.752-.953,1.258-1.995,2.466-3.125,3.622-1.131,1.157-2.377,2.183-3.74,3.08l-3.567-2.516c1.172-.752,2.288-1.626,3.347-2.624,1.059-.998,2.046-2.067,2.96-3.21.914-1.142,1.713-2.262,2.4-3.361ZM844.369,791.052l5.662-1.648c.712.839,1.396,1.793,2.049,2.863.653,1.07,1.105,2.024,1.356,2.862l-6.106,1.865c-.145-.838-.51-1.814-1.096-2.927-.585-1.113-1.207-2.118-1.865-3.015ZM838.268,812.306h36.099l-1.358,4.034h-36.091l1.35-4.034ZM842.323,819.245l4.783-.477c.066,1.388-.044,2.906-.331,4.554-.287,1.648-.634,3.079-1.041,4.294l-5.115.52c.332-.78.618-1.685.855-2.711.238-1.026.44-2.082.609-3.166.168-1.084.248-2.088.239-3.014ZM849.299,804.455h24.201l-1.357,4.034h-24.195l1.352-4.034ZM850.426,818.855l4.687-.824c.265,1.214.426,2.531.482,3.948.056,1.417.015,2.645-.122,3.686l-4.957.998c.181-1.07.261-2.335.238-3.795-.024-1.46-.133-2.798-.328-4.012ZM858.713,818.075l4.312-1.128c.443.897.827,1.887,1.154,2.972.326,1.085.499,2.017.52,2.797l-4.635,1.302c.023-.809-.096-1.771-.359-2.884-.263-1.113-.595-2.132-.992-3.058ZM872.081,812.306h5.689c-.191.463-.345.839-.459,1.127-.116.289-.226.536-.328.738-1.277,2.949-2.403,5.372-3.377,7.265-.975,1.894-1.857,3.383-2.646,4.468-.79,1.084-1.552,1.871-2.284,2.364-.742.52-1.474.881-2.197,1.084-.724.202-1.524.347-2.404.434-.763.058-1.749.094-2.957.109-1.209.014-2.494-.007-3.855-.065.178-.636.26-1.353.243-2.148-.017-.795-.153-1.496-.409-2.103,1.165.116,2.274.188,3.327.217,1.053.029,1.85.029,2.391,0,.46,0,.85-.029,1.172-.087.32-.058.638-.187.955-.391.486-.289,1.042-.889,1.668-1.8.625-.911,1.375-2.218,2.251-3.925.875-1.705,1.871-3.903,2.989-6.592l.234-.694ZM870.423,796.518h5.268c-.926,1.591-1.908,3.246-2.947,4.966-1.04,1.721-1.987,3.217-2.839,4.489l-4.781-.65c.789-1.186,1.676-2.587,2.664-4.207.987-1.619,1.866-3.152,2.636-4.598ZM871.319,804.455h5.266c-.89,1.59-1.844,3.239-2.861,4.945-1.017,1.706-1.943,3.165-2.776,4.38l-4.876-.52c.834-1.214,1.733-2.624,2.698-4.229.965-1.605,1.814-3.129,2.549-4.576Z"/>
      <path class="st0" d="M896.702,819.679h48.36l-1.448,4.25h-48.348l1.437-4.25ZM907.142,793.048h45.345l-1.433,4.207h-45.335l1.423-4.207ZM908.888,799.684h37.401l-5.907,17.35h-37.365l5.87-17.35ZM913.09,803.458l-1.058,3.123h26.165l1.062-3.123h-26.17ZM910.843,810.094l-1.072,3.165h26.156l1.077-3.165h-26.16ZM927.911,789.405h5.908l-13.755,40.51h-5.895l13.742-40.51Z"/>
      <path class="st0" d="M964.668,823.887h47.711l-1.584,4.597h-47.698l1.572-4.597ZM975.967,797.689h42.78l-1.569,4.553h-42.769l1.558-4.553ZM974.347,810.354h37.592l-1.553,4.511h-37.582l1.544-4.511ZM991.537,792.007l5.645-2.646c.926.608,1.901,1.309,2.924,2.104,1.022.795,1.973,1.59,2.853,2.385.879.796,1.573,1.54,2.08,2.234l-6.083,2.993c-.436-.694-1.062-1.454-1.879-2.278-.817-.824-1.709-1.663-2.675-2.515-.967-.853-1.922-1.612-2.865-2.278ZM992.932,801.592h6.277l-8.491,24.723h-6.268l8.483-24.723Z"/>
      <path class="st0" d="M1036.063,815.472h48.85l-1.512,4.337h-48.838l1.5-4.337ZM1049.884,819.766l3.547,2.949c-1.815.84-3.801,1.692-5.962,2.56-2.16.867-4.349,1.691-6.567,2.472-2.218.78-4.312,1.459-6.283,2.038-.194-.463-.484-1.034-.868-1.714-.385-.679-.758-1.265-1.119-1.756,1.844-.52,3.835-1.156,5.973-1.908,2.137-.751,4.205-1.533,6.204-2.343,1.998-.809,3.689-1.575,5.075-2.299ZM1059.23,789.578l1.194,3.773c-2,.55-4.083,1.056-6.248,1.519-2.165.463-4.177.867-6.034,1.214.053-.462.061-.998.023-1.605-.038-.608-.115-1.156-.228-1.649,1.853-.433,3.804-.946,5.855-1.539,2.05-.593,3.863-1.164,5.437-1.714ZM1047.937,792.831l4.757,1.172-6.959,22.858h-5.102l7.305-24.029ZM1048.377,799.554h8.991l-1.323,3.817h-8.989l1.321-3.817ZM1045.949,807.491h8.881l-1.338,3.86h-8.879l1.336-3.86ZM1058.705,805.366l4.097.607c-.715,1.446-1.541,2.856-2.478,4.229-.938,1.374-1.962,2.537-3.073,3.492-.29-.289-.751-.622-1.382-.997-.632-.376-1.178-.665-1.639-.867,1.045-.867,1.914-1.866,2.606-2.993.692-1.128,1.315-2.284,1.869-3.47ZM1063.124,789.708h4.844l-3.734,10.757h6.277l-1.266,3.643h-11.117l4.994-14.4ZM1064.749,793.004h10.591l-1.342,3.86h-10.589l1.339-3.86ZM1067.519,800.508h4.788l-3.874,11.148c-.281.81-.613,1.431-.993,1.865-.381.433-.971.78-1.771,1.041-.754.232-1.634.368-2.641.412-1.008.044-2.167.065-3.478.065.054-.462.05-.961-.012-1.496-.063-.534-.148-1.004-.255-1.409.769.029,1.489.051,2.157.065.667.015,1.131.007,1.39-.021.248,0,.429-.036.543-.109.113-.072.206-.21.276-.412l3.871-11.148ZM1062.395,822.759l4.266-3.253c1.611.665,3.235,1.395,4.871,2.19,1.636.795,3.173,1.569,4.612,2.32,1.438.752,2.648,1.446,3.631,2.082l-5.01,3.557c-.902-.666-2.029-1.395-3.381-2.19-1.352-.796-2.797-1.605-4.335-2.429-1.538-.825-3.089-1.584-4.654-2.278ZM1077.35,791.357h9.9l-1.405,4.034h-9.898l1.402-4.034ZM1071.908,807.622h8.934l-1.344,3.86h-8.932l1.342-3.86ZM1075.07,799.598h9.044l-1.344,3.86h-9.042l1.342-3.86ZM1083.95,791.357h5.269c-.735,2.111-1.537,4.337-2.406,6.68-.869,2.342-1.742,4.669-2.619,6.983-.877,2.314-1.731,4.511-2.562,6.592-.831,2.082-1.601,3.933-2.306,5.552h-5.315c.715-1.648,1.511-3.527,2.387-5.639.875-2.11,1.761-4.322,2.655-6.636.893-2.313,1.763-4.633,2.609-6.961.845-2.328,1.607-4.518,2.287-6.571Z"/>
      <path class="st0" d="M1102.935,819.722c1.888-.231,4.091-.527,6.608-.889,2.518-.361,5.105-.744,7.764-1.149l-.92,3.687c-2.399.376-4.783.759-7.151,1.149-2.368.391-4.569.759-6.603,1.106l.302-3.904ZM1113.491,791.052h17.193l-1.46,4.165h-17.189l1.456-4.165ZM1115.112,793.265h4.151l-9.58,27.368h-4.145l9.573-27.368ZM1115.048,800.292h8.353l-1.337,3.817h-8.351l1.336-3.817ZM1111.952,809.14h8.349l-1.337,3.817h-8.347l1.336-3.817ZM1123.536,793.221h4.311l-12.846,36.65h-4.302l12.837-36.65ZM1126.175,802.243h32.555l-1.391,3.948h-32.548l1.384-3.948ZM1130.25,793.656h15.859l-1.265,3.6h-15.856l1.262-3.6ZM1129.436,797.949l4.067-.52c.06.839.034,1.772-.077,2.798-.113,1.026-.242,1.901-.389,2.624l-4.377.65c.181-.722.35-1.605.502-2.646.152-1.041.243-2.009.274-2.906ZM1126.014,808.011h4.361l-6.591,18.781h-4.356l6.586-18.781ZM1127.662,808.011h12.657l-5.87,16.699h-4.25l4.738-13.489h-8.401l1.126-3.21ZM1123.546,820.503h10.203l-1.097,3.123h-10.201l1.095-3.123ZM1125.805,814.214h10.207l-1.113,3.166h-10.205l1.111-3.166ZM1135.566,790.185l4.913-.65c.131.84.243,1.757.337,2.754.093.997.101,1.858.025,2.581l-5.185.824c.076-.723.102-1.605.077-2.646-.026-1.041-.081-1.996-.167-2.863ZM1139.265,797.385l4.218.564c-.736.983-1.457,1.973-2.162,2.972-.705.997-1.321,1.842-1.849,2.537l-3.579-.564c.558-.781,1.153-1.692,1.784-2.733.632-1.041,1.16-1.966,1.587-2.776ZM1152.322,807.752l3.719,1.822c-2.265,3.007-4.791,5.776-7.578,8.306-2.787,2.53-5.694,4.778-8.724,6.744-3.029,1.967-6.071,3.614-9.122,4.945-.197-.347-.525-.774-.985-1.279-.459-.507-.894-.932-1.304-1.279,2.915-1.243,5.811-2.805,8.686-4.684,2.875-1.88,5.63-4.049,8.267-6.506,2.637-2.458,4.984-5.147,7.04-8.068ZM1148.79,789.361h4.898c-1.323,3.759-2.524,7.374-3.603,10.843-1.08,3.47-1.99,6.687-2.731,9.65-.743,2.965-1.308,5.552-1.696,7.764-.389,2.212-.543,3.933-.462,5.161.08,1.23.416,1.859,1.009,1.887.389,0,.89-.491,1.502-1.474.612-.983,1.294-2.343,2.047-4.077.146.289.389.607.727.954.337.348.691.651,1.061.911.368.261.651.463.849.608-1.165,2.198-2.257,3.889-3.276,5.075-1.02,1.185-1.933,1.995-2.741,2.429-.808.433-1.513.65-2.115.65-1.512-.029-2.57-.694-3.175-1.995-.604-1.302-.836-3.159-.695-5.574.14-2.414.583-5.284,1.328-8.609.744-3.325,1.726-7.027,2.947-11.104,1.221-4.076,2.596-8.442,4.127-13.099ZM1152.892,793.135l4.442-1.128c.247.81.453,1.685.619,2.625.165.94.297,1.851.394,2.732.097.882.136,1.655.114,2.32l-4.782,1.344c.066-.694.065-1.496-.004-2.407-.07-.911-.168-1.843-.292-2.798-.126-.954-.289-1.85-.491-2.689Z"/>
      <path class="st0" d="M1204.175,789.448h6.547c-.585,1.446-1.31,3.188-2.175,5.226-.866,2.039-1.943,4.272-3.231,6.701-1.288,2.43-2.87,4.938-4.746,7.526-1.875,2.588-4.095,5.147-6.658,7.677-2.563,2.531-5.528,4.923-8.895,7.178-3.367,2.255-7.235,4.251-11.601,5.986-.282-.607-.726-1.251-1.336-1.93-.61-.68-1.301-1.279-2.073-1.801,4.209-1.589,7.909-3.411,11.099-5.464,3.189-2.053,5.97-4.251,8.341-6.593,2.372-2.342,4.385-4.698,6.041-7.069,1.656-2.37,3.045-4.663,4.167-6.875,1.121-2.213,2.05-4.23,2.784-6.051.735-1.822,1.313-3.325,1.733-4.511ZM1208.259,794.739c-.125.55-.326,1.519-.607,2.907-.28,1.388-.49,3.029-.631,4.923-.141,1.894-.075,3.904.199,6.029.272,2.125.858,4.243,1.756,6.354.897,2.111,2.259,4.084,4.086,5.92,1.826,1.837,4.213,3.391,7.159,4.663-1.035.52-2.056,1.149-3.062,1.887-1.007.738-1.859,1.438-2.555,2.103-3.083-1.388-5.548-3.094-7.396-5.117-1.849-2.024-3.228-4.2-4.136-6.528-.91-2.328-1.475-4.678-1.697-7.049-.222-2.37-.253-4.604-.094-6.701.158-2.096.382-3.925.67-5.487.288-1.561.502-2.69.642-3.383l5.666-.52Z"/>
      <path class="st0" d="M781.57,872.168c1.801-.318,3.861-.694,6.177-1.128,2.317-.433,4.77-.904,7.359-1.409,2.588-.506,5.148-1.005,7.68-1.496l-.734,4.423c-3.536.752-7.107,1.504-10.713,2.255-3.606.752-6.847,1.418-9.723,1.996l-.046-4.641ZM786.717,858.288h19.302l-1.476,4.424h-19.297l1.471-4.424ZM796.677,849.874h5.783l-11.667,35.002c-.386,1.157-.855,2.06-1.406,2.711-.553.65-1.314,1.163-2.287,1.54-1.007.375-2.163.613-3.467.715-1.304.101-2.909.152-4.815.152.131-.608.171-1.338.12-2.19-.052-.854-.153-1.584-.304-2.19,1.05.029,2.077.043,3.083.043h2.038c.67,0,1.097-.274,1.281-.824l11.641-34.959ZM808.387,853.257h28.908l-1.571,4.684h-28.901l1.563-4.684ZM821.772,854.948h6.152l-9.789,29.234c-.455,1.359-1.036,2.435-1.744,3.231-.708.795-1.711,1.394-3.011,1.8-1.265.404-2.796.658-4.595.759-1.799.101-3.95.152-6.455.152.093-.492.118-1.041.074-1.649-.044-.607-.121-1.222-.232-1.843-.11-.621-.251-1.149-.424-1.583,1.145.058,2.299.094,3.458.109,1.16.015,2.199.021,3.117.021h1.906c.539-.028.941-.122,1.207-.282.265-.159.46-.426.586-.802l9.75-29.147Z"/>
      <path class="st0" d="M860.272,853.387h5.41l-4.589,13.619c-.575,1.707-1.266,3.572-2.07,5.595-.806,2.024-1.742,4.092-2.805,6.203-1.065,2.111-2.259,4.164-3.584,6.158-1.326,1.996-2.79,3.803-4.393,5.422-.23-.26-.578-.563-1.044-.91-.466-.347-.945-.68-1.437-.998-.494-.318-.927-.549-1.302-.694,1.484-1.474,2.805-3.093,3.964-4.858,1.158-1.764,2.19-3.571,3.096-5.422.905-1.85,1.697-3.679,2.377-5.487.679-1.807,1.276-3.476,1.792-5.01l4.585-13.619ZM863.136,853.387h42.115l-1.383,4.077h-42.106l1.373-4.077ZM871.17,873.425l4.708,1.431c-1.709,1.504-3.661,2.943-5.855,4.316-2.194,1.374-4.505,2.625-6.933,3.752-2.428,1.128-4.868,2.082-7.319,2.863-.06-.347-.151-.759-.272-1.237-.122-.477-.255-.946-.399-1.409-.144-.462-.309-.839-.494-1.128,2.085-.635,4.17-1.402,6.256-2.299,2.084-.895,4.026-1.886,5.822-2.971,1.796-1.085,3.29-2.19,4.484-3.319ZM864.948,864.534h3.286l-.556,1.649c-.322.954-.833,1.945-1.532,2.971-.7,1.027-1.865,1.916-3.496,2.668-.176-.318-.483-.665-.921-1.041-.439-.376-.84-.651-1.206-.825.883-.317,1.578-.7,2.083-1.149.504-.448.901-.918,1.19-1.409.289-.492.498-.925.625-1.302l.526-1.561ZM860.747,872.124h38.468l-1.251,3.687h-38.46l1.243-3.687ZM865.499,860.067h16.437l-1.187,3.513h-16.434l1.184-3.513ZM872.067,858.202h4.295l-4.408,13.055h-4.292l4.405-13.055ZM865.248,878.413h28.55l-4.044,11.928h-5.77l2.909-8.588h-17.317l-2.915,8.631h-5.452l4.039-11.971ZM866.077,885.526h22.449l-1.161,3.427h-22.445l1.157-3.427ZM875.891,864.621h3.18l-1.04,3.079c-.108.319-.157.543-.148.673.009.13.137.195.385.195.106,0,.114,0,.026,0-.088,0-.079,0,.027,0,.176,0,.461-.006.855-.021.393-.014.723-.05.991-.109-.063.289-.142.6-.236.932-.095.333-.196.658-.303.976-.197.058-.477.102-.839.13-.363.03-.722.044-1.074.044h-1.007c-1.201,0-1.889-.238-2.063-.715-.175-.478-.1-1.193.222-2.148l1.025-3.036ZM881.206,850.611l6.197-.911c.096.867.164,1.843.204,2.928.04,1.085.044,1.988.011,2.711l-6.586,1.127c.086-.78.148-1.72.183-2.818.035-1.099.032-2.111-.009-3.036ZM883.303,864.491h3.127l-.557,1.648c-.323.955-.78,1.938-1.369,2.949-.59,1.013-1.458,1.908-2.605,2.69-.15-.289-.457-.608-.922-.955-.465-.347-.859-.622-1.178-.824.837-.492,1.494-1.128,1.97-1.908.476-.781.817-1.475,1.022-2.082l.513-1.518ZM883.315,860.067h18.611l-1.191,3.513h-18.607l1.188-3.513ZM890.506,858.244h4.295l-4.363,12.883h-4.292l4.36-12.883ZM894.329,864.491h3.286l-1.191,3.512c-.128.377-.178.629-.152.76.027.13.199.195.517.195h1.007c.247,0,.588-.014,1.022-.044.434-.028.784-.071,1.051-.13-.063.289-.138.615-.225.976-.088.362-.172.715-.254,1.062-.232.058-.565.102-.998.131-.434.029-.845.043-1.234.043h-2.014c-1.307,0-2.055-.245-2.241-.737-.187-.492-.109-1.243.234-2.256l1.19-3.512Z"/>
      <path class="st0" d="M939.054,849.614l5.218,1.344c-1.742,1.996-3.648,3.954-5.718,5.877-2.07,1.923-4.169,3.723-6.295,5.399-2.127,1.677-4.185,3.152-6.173,4.424-.311-.231-.715-.52-1.215-.867-.501-.347-1.012-.687-1.535-1.02-.523-.332-.998-.599-1.423-.802,2.045-1.128,4.09-2.465,6.138-4.012,2.046-1.547,4.015-3.203,5.908-4.966,1.892-1.764,3.59-3.557,5.096-5.378ZM919.825,871.04h10.81l-.044.13h27.978l.044-.13h10.386l-1.429,4.164h-10.384l.044-.13h-27.972l-.044.13h-10.807l1.417-4.164ZM932.474,861.758h5.673c-.89,1.881-1.845,3.854-2.868,5.921-1.023,2.068-2.053,4.127-3.089,6.181-1.036,2.053-2.044,3.998-3.023,5.834-.98,1.837-1.874,3.477-2.684,4.923h-5.824c.855-1.474,1.794-3.144,2.818-5.009,1.024-1.866,2.071-3.824,3.141-5.877,1.071-2.053,2.096-4.106,3.079-6.159.982-2.053,1.907-3.99,2.776-5.812ZM925.012,880.539h38.556l-1.398,4.076h-38.547l1.389-4.076ZM935.718,853.951h37.181l-1.428,4.164h-37.173l1.419-4.164ZM935.124,861.758h26.403l-1.396,4.077h-26.397l1.39-4.077ZM935.728,876.765l3.985-2.515c.956.405,1.924.882,2.901,1.431.978.549,1.879,1.113,2.706,1.691.826.579,1.468,1.127,1.926,1.648l-4.248,2.819c-.413-.548-1.018-1.127-1.817-1.735-.799-.607-1.671-1.207-2.616-1.8-.946-.592-1.892-1.106-2.838-1.54ZM939.7,867.614l4.039-2.516c.896.376,1.832.817,2.808,1.323.975.507,1.864,1.034,2.666,1.583.8.55,1.436,1.071,1.904,1.562l-4.288,2.776c-.433-.492-1.027-1.026-1.783-1.605-.757-.578-1.597-1.142-2.522-1.692-.926-.548-1.868-1.025-2.824-1.431ZM959.301,861.758h5.62c-.178.52-.334.947-.465,1.279-.132.333-.232.601-.301.802-1.589,4.222-2.974,7.8-4.156,10.735-1.183,2.935-2.208,5.335-3.076,7.2-.869,1.865-1.629,3.311-2.28,4.337-.652,1.026-1.268,1.771-1.851,2.234-.828.665-1.622,1.128-2.381,1.388-.76.261-1.601.448-2.522.564-.866.058-1.926.086-3.179.086s-2.545-.015-3.876-.043c.143-.52.209-1.128.199-1.822-.01-.694-.125-1.287-.345-1.778,1.205.087,2.315.145,3.329.173,1.013.029,1.79.029,2.33,0,.458,0,.843-.043,1.156-.13.312-.086.641-.275.987-.564.426-.317.931-.969,1.515-1.952.583-.982,1.284-2.385,2.103-4.207.817-1.821,1.784-4.156,2.901-7.004,1.116-2.848,2.438-6.296,3.966-10.344l.327-.955Z"/>
      <path class="st0" d="M990.214,867.136h48.92l-1.776,5.118h-48.906l1.762-5.118Z"/>
      <path class="st0" d="M1077.077,851.349l5.586,1.171c-1.859,2.487-3.935,4.865-6.229,7.135-2.295,2.27-4.679,4.345-7.155,6.224-2.475,1.88-4.979,3.513-7.511,4.901-.243-.318-.58-.694-1.012-1.128-.432-.434-.882-.867-1.349-1.302-.468-.433-.886-.78-1.254-1.041,3.678-1.735,7.154-4.004,10.429-6.81,3.275-2.804,6.106-5.855,8.494-9.151ZM1077.09,867.267h6.201c-1.086,2.4-2.322,4.749-3.708,7.048-1.386,2.299-3.089,4.467-5.107,6.506-2.018,2.038-4.509,3.889-7.471,5.552-2.962,1.662-6.592,3.087-10.886,4.272-.096-.434-.256-.911-.481-1.431-.225-.52-.486-1.034-.787-1.54-.301-.506-.625-.918-.973-1.236,3.862-.955,7.085-2.125,9.669-3.513,2.584-1.388,4.717-2.921,6.397-4.598,1.679-1.676,3.065-3.447,4.159-5.313,1.092-1.865,2.088-3.78,2.986-5.746ZM1067.648,865.921h29.099l-1.595,4.554h-29.092l1.587-4.554ZM1086.474,850.567h11.99l-1.518,4.337h-11.987l1.515-4.337ZM1094.892,865.921h5.937l-.456,1.302c-.112.318-.221.579-.326.78-1.333,3.297-2.499,6.123-3.501,8.479-1.003,2.357-1.895,4.323-2.676,5.899-.782,1.576-1.491,2.819-2.127,3.729-.637.911-1.278,1.584-1.924,2.017-.868.665-1.71,1.128-2.524,1.388-.815.261-1.737.448-2.765.564-.949.087-2.154.13-3.619.13s-2.98-.029-4.548-.086c.207-.694.288-1.483.244-2.364-.045-.882-.216-1.655-.513-2.32,1.548.116,2.979.188,4.293.216,1.313.03,2.288.044,2.923.044.494,0,.923-.044,1.289-.13.366-.087.729-.245,1.093-.477.59-.376,1.254-1.214,1.993-2.516.737-1.301,1.671-3.238,2.802-5.812,1.13-2.573,2.497-5.899,4.102-9.976l.304-.867ZM1093.052,850.567h6.313c.09,2.169.516,4.258,1.28,6.268.763,2.009,1.861,3.845,3.293,5.508,1.431,1.663,3.165,3.015,5.203,4.056-.501.318-1.104.73-1.811,1.236-.708.507-1.386,1.027-2.032,1.561-.647.535-1.229,1.034-1.743,1.496-2.078-1.329-3.839-2.934-5.282-4.814-1.445-1.88-2.567-3.925-3.364-6.138-.8-2.212-1.282-4.446-1.448-6.701h-1.273l.865-2.472Z"/>
      <path class="st0" d="M1141.068,869.652h6.094c-1.059,2.4-2.224,4.649-3.494,6.745-1.27,2.097-2.808,4.027-4.612,5.79-1.806,1.765-4.036,3.333-6.691,4.706-2.655,1.373-5.92,2.551-9.795,3.535-.059-.433-.194-.904-.403-1.409-.21-.507-.461-.998-.751-1.475-.292-.477-.592-.875-.904-1.193,3.442-.751,6.293-1.684,8.557-2.797,2.263-1.112,4.119-2.37,5.567-3.773,1.448-1.403,2.666-2.957,3.657-4.663.99-1.706,1.915-3.527,2.775-5.465ZM1129.012,865.965h47.757l-1.554,4.381h-47.745l1.542-4.381ZM1137.417,853.387l5.696-1.561c.471,1.07.889,2.241,1.254,3.513.364,1.273.651,2.516.859,3.73.208,1.214.298,2.313.268,3.296l-6.156,1.821c.053-.954.008-2.052-.136-3.296-.145-1.243-.375-2.523-.689-3.838-.314-1.316-.68-2.537-1.095-3.665ZM1155.42,849.874h5.782l-6.332,17.914h-5.776l6.327-17.914ZM1155.347,869.435h5.776l-5.188,14.66c-.266.752-.315,1.237-.144,1.454.17.216.714.325,1.632.325h5.453c.635,0,1.161-.166,1.579-.498.417-.332.874-.998,1.37-1.996.494-.997,1.13-2.494,1.909-4.489.296.261.718.514,1.267.759.548.246,1.112.47,1.694.673.581.202,1.098.362,1.552.477-1.049,2.458-2.057,4.381-3.026,5.769-.969,1.388-2.024,2.349-3.167,2.884-1.142.535-2.56.802-4.255.802h-6.722c-1.871,0-3.251-.188-4.141-.564-.891-.376-1.38-1.012-1.469-1.908-.089-.896.137-2.11.679-3.643l5.199-14.704ZM1172.586,851.435l5.448,1.692c-1.229,1.272-2.503,2.574-3.823,3.903-1.32,1.33-2.608,2.596-3.863,3.795-1.256,1.2-2.432,2.249-3.526,3.145l-4.378-1.562c1.08-.954,2.234-2.067,3.462-3.339,1.228-1.273,2.431-2.574,3.609-3.904,1.178-1.329,2.202-2.574,3.071-3.73Z"/>
      <path class="st0" d="M1215.19,871.777l4.414,1.735c-1.85,1.62-3.856,3.181-6.017,4.684-2.162,1.504-4.417,2.928-6.768,4.272-2.351,1.345-4.728,2.567-7.132,3.665-2.403,1.098-4.773,2.052-7.108,2.862-.163-.433-.402-.904-.716-1.409-.314-.507-.646-1.012-.995-1.518-.35-.506-.698-.918-1.043-1.237,2.248-.664,4.528-1.467,6.841-2.407,2.311-.939,4.588-1.98,6.832-3.123,2.243-1.142,4.363-2.356,6.358-3.643,1.995-1.286,3.773-2.581,5.332-3.882ZM1196.632,870.172h47.216l-1.633,4.554h-47.204l1.621-4.554ZM1244.19,850.134l3.054,4.207c-3.161.433-6.545.824-10.152,1.171-3.607.347-7.302.644-11.084.889-3.783.246-7.552.456-11.308.629-3.757.173-7.4.303-10.931.391.119-.434.197-.925.234-1.475.036-.548.041-1.084.014-1.604-.027-.52-.067-.955-.12-1.302,3.506-.115,7.085-.26,10.737-.433,3.651-.173,7.253-.383,10.807-.629,3.553-.246,6.931-.52,10.135-.825,3.203-.303,6.074-.643,8.614-1.019ZM1204.219,860.326l5.412-1.648c.708,1.186,1.297,2.509,1.766,3.969.468,1.46.696,2.754.683,3.882l-5.843,1.821c.084-1.127-.069-2.435-.456-3.925-.389-1.488-.91-2.855-1.562-4.099ZM1218.874,858.635l5.761-1.431c.241.81.455,1.67.642,2.581.186.911.299,1.807.338,2.69.038.882.004,1.67-.102,2.364l-6.139,1.604c.23-1.041.296-2.291.2-3.752-.098-1.459-.331-2.811-.7-4.055ZM1218.382,866.399h6.042l-8.526,23.855h-6.034l8.517-23.855ZM1223.737,871.734c.629,1.302,1.505,2.581,2.627,3.839,1.121,1.257,2.402,2.465,3.842,3.621,1.44,1.157,3,2.198,4.681,3.124,1.681.925,3.408,1.72,5.182,2.385-.538.318-1.169.723-1.892,1.214-.724.492-1.417.997-2.079,1.518-.663.52-1.25.998-1.757,1.431-1.732-.78-3.413-1.728-5.044-2.841-1.632-1.113-3.154-2.335-4.566-3.665-1.414-1.329-2.672-2.746-3.777-4.25-1.105-1.504-2.013-3.036-2.728-4.598l5.51-1.778ZM1240.004,856.64l5.181,1.822c-1.294,1.243-2.658,2.509-4.091,3.795-1.434,1.287-2.843,2.509-4.228,3.665-1.386,1.157-2.681,2.184-3.885,3.08l-4.111-1.692c1.189-.954,2.454-2.045,3.795-3.274,1.341-1.229,2.659-2.495,3.956-3.795,1.296-1.302,2.424-2.501,3.383-3.601Z"/>
    </g>
    <g>
      <path class="st0" d="M451.256,316.676c.012-.043.023-.088.034-.132,8.483,18.191,26.922,30.804,48.317,30.804h188.047l-3.856,6.044-.357-.19-19.37,31.109-25.387,39.784c10.574,8.88,19.91,19.421,27.579,31.463l51.893,81.477,24.437-39.247,126.296-198.166c9.255-13.188,21.974-28.319,39.159-42.78,31.909-26.849,64.21-38.768,83.464-44.245H317.764c19.253,5.476,51.555,17.395,83.464,44.245,25.27,21.263,40.904,43.99,50.028,59.833Z"/>
      <path class="st0" d="M492.046,794.696v-.002h7.869c-.006-.025-.012-.051-.02-.077,30.58-.799,59.242-14.065,79.549-36.325l.257-.446.723.385,33.614-53.982-75.433-118.443-11.271,18.101-.149-.241-25.136,40.849-33.694,54.11.171.091-3.514,5.519c-4.576,6.781-10.092,14.167-16.707,21.778l-27.104-42.557c-19.97-31.36-54.203-50.657-91.243-51.625.003-.016.008-.032.011-.047h-159.89c19.255,5.476,51.555,17.396,83.464,44.245,18.699,15.734,32.112,32.262,41.524,46.217l6.45,10.128c.715,1.193,1.406,2.363,2.054,3.488.017-.062.032-.125.049-.187l37.399,58.725c-.325.095-.677.202-.994.292h1.182v.002h150.839Z"/>
      <path class="st0" d="M925.779,426.473c.004.016.008.033.013.049-36.974,1.024-71.129,20.311-91.07,51.622l-91.979,144.423-97.741-153.47c-20.497-32.184-56.011-51.671-94.169-51.671h-89.578l206.069,323.564-84.489,132.662c-.015-.063-.031-.125-.047-.187-.65,1.128-1.341,2.299-2.058,3.493l-6.445,10.12c-9.413,13.955-22.825,30.485-41.525,46.22-31.909,26.849-64.211,38.769-83.465,44.245h159.89c-.004-.016-.008-.031-.012-.047,37.041-.968,71.272-20.265,91.245-51.625l262.63-412.374c9.256-13.188,21.975-28.319,39.158-42.778,31.909-26.849,64.21-38.769,83.465-44.245h-159.89Z"/>
    </g>
  </g>
</svg>