<?xml version="1.0" encoding="UTF-8"?>
<svg id="_圖層_1" data-name="圖層_1" xmlns="http://www.w3.org/2000/svg" version="1.1" viewBox="0 0 1417.323 1417.323">
  <!-- Generator: Adobe Illustrator 30.3.0, SVG Export Plug-In . SVG Version: 2.1.3 Build 182)  -->
  <defs>
    <style>
      .st0 {
        fill: #f3f7fa;
      }
    </style>
  </defs>
  <g>
    <path class="st0" d="M163.538,1200.203h15.083c-.787,3.562-1.816,7.198-3.082,10.908-1.268,3.712-3.039,7.386-5.312,11.022-2.275,3.636-5.181,7.045-8.722,10.226-3.541,3.182-7.935,6.022-13.181,8.522-.525-1.061-1.334-2.255-2.427-3.579-1.094-1.324-2.252-2.631-3.476-3.92-1.225-1.287-2.406-2.273-3.541-2.954,4.459-1.893,8.132-4.071,11.017-6.533,2.885-2.461,5.246-5.074,7.082-7.84,1.836-2.764,3.256-5.511,4.263-8.237,1.004-2.727,1.771-5.264,2.295-7.613ZM246.824,1179.296l11.673,9.999c-6.996,1.136-14.821,2.179-23.477,3.125-8.657.948-17.641,1.724-26.953,2.329-9.312.607-18.559,1.099-27.74,1.477-9.181.38-17.838.645-25.969.795-.701-1.136-1.596-2.499-2.689-4.09-1.095-1.591-2.209-3.162-3.345-4.716-1.137-1.552-2.187-2.821-3.148-3.806,8.568.076,17.51.039,26.822-.114,9.312-.151,18.536-.455,27.674-.909,9.136-.454,17.75-1.023,25.838-1.705,8.087-.682,15.192-1.477,21.313-2.386ZM148.193,1143.277h106.501v32.724h-106.501v-32.724ZM163.276,1155.094v8.976h15.214v-8.976h-15.214ZM164.85,1219.86l8.001-8.749c2.099,1.289,4.349,2.747,6.755,4.375,2.404,1.63,4.699,3.238,6.886,4.829,2.185,1.59,3.935,3.03,5.246,4.318l-8.263,9.658c-1.311-1.363-3.016-2.878-5.115-4.545-2.099-1.666-4.328-3.389-6.689-5.17-2.361-1.779-4.636-3.352-6.82-4.716ZM192.918,1155.094v8.976h15.608v-8.976h-15.608ZM193.705,1195.09l9.706-8.522,5.902,1.477v58.517h-15.608v-51.472ZM230.823,1197.59h15.345c-.613,3.789-1.531,7.669-2.754,11.647-1.226,3.977-2.908,7.897-5.05,11.76-2.144,3.863-4.898,7.519-8.263,10.965-3.367,3.447-7.63,6.533-12.788,9.26-1.049-1.667-2.537-3.579-4.459-5.738-1.924-2.159-3.804-3.844-5.64-5.056,4.371-1.969,7.978-4.298,10.821-6.988,2.84-2.688,5.115-5.529,6.82-8.522,1.705-2.991,2.994-5.983,3.869-8.976.873-2.991,1.574-5.775,2.099-8.351ZM222.822,1155.094v8.976h16.002v-8.976h-16.002ZM242.102,1209.407c1.398,2.122,3.213,4.488,5.443,7.102,2.23,2.613,4.742,5.095,7.542,7.443,2.797,2.349,5.64,4.357,8.525,6.022-1.049.682-2.23,1.61-3.541,2.784-1.312,1.175-2.58,2.386-3.804,3.636-1.226,1.25-2.23,2.404-3.017,3.465-2.974-2.045-5.881-4.563-8.722-7.556-2.843-2.991-5.423-6.059-7.738-9.203-2.318-3.143-4.177-5.926-5.574-8.352l10.886-5.34Z"/>
    <path class="st0" d="M347.159,1162.025l11.542,1.363c-.262,3.258-.656,6.818-1.18,10.681-.525,3.863-1.203,7.669-2.033,11.419-.832,3.75-1.77,7.101-2.82,10.056l-11.804-3.636c.961-2.574,1.857-5.585,2.689-9.033.83-3.446,1.574-6.988,2.23-10.624.656-3.636,1.115-7.045,1.377-10.226ZM358.57,1139.528h15.083v106.694h-15.083v-106.694ZM370.898,1159.639l8.657-2.613c1.135,2.349,2.207,4.868,3.213,7.556,1.004,2.69,1.879,5.266,2.623,7.726.742,2.462,1.289,4.641,1.639,6.533l-9.181,3.182c-.351-1.893-.875-4.128-1.574-6.704-.701-2.574-1.508-5.244-2.426-8.011-.918-2.764-1.902-5.321-2.951-7.67ZM403.688,1204.18h15.608c-.701,5.985-1.881,11.609-3.541,16.873-1.662,5.266-4.459,10.019-8.394,14.26-3.935,4.242-9.575,7.878-16.919,10.908-.613-1.136-1.465-2.368-2.558-3.693-1.094-1.326-2.23-2.633-3.41-3.92-1.18-1.289-2.383-2.312-3.607-3.068,6.119-2.347,10.733-5.094,13.837-8.238,3.103-3.142,5.246-6.684,6.427-10.624,1.18-3.938,2.033-8.105,2.558-12.499ZM407.361,1140.55l14.558,3.75c-2.361,4.167-5.094,8.277-8.197,12.328-3.105,4.054-6.384,7.822-9.837,11.306-3.455,3.485-6.931,6.553-10.427,9.203-.875-.833-2.033-1.798-3.476-2.897-1.443-1.097-2.931-2.196-4.46-3.295-1.531-1.097-2.865-1.949-4-2.557,5.158-3.332,10.034-7.499,14.624-12.499,4.591-4.999,8.329-10.113,11.214-15.339ZM394.245,1168.729h57.054v37.269h-57.054v-37.269ZM409.197,1180.66v13.407h26.494v-13.407h-26.494ZM425.198,1202.703h15.739v25.906c0,1.667.152,2.709.459,3.125.305.417.984.625,2.033.625h5.902c.873,0,1.508-.321,1.902-.966.393-.642.699-1.969.918-3.977.217-2.006.371-5.017.459-9.033,1.049.682,2.381,1.363,4,2.045,1.617.682,3.3,1.289,5.05,1.818,1.748.531,3.279.985,4.591,1.363-.351,5.454-1.095,9.697-2.23,12.726-1.137,3.029-2.734,5.15-4.787,6.363-2.055,1.211-4.787,1.818-8.197,1.818h-10.362c-4.197,0-7.41-.494-9.64-1.477-2.23-.986-3.761-2.633-4.591-4.943-.832-2.31-1.246-5.397-1.246-9.26v-26.134ZM426.51,1146.686l10.886-6.363c3.322,2.803,6.755,5.928,10.296,9.374,3.541,3.448,6.841,6.857,9.903,10.226,3.06,3.371,5.509,6.383,7.345,9.033l-12.067,7.613c-1.574-2.727-3.826-5.832-6.755-9.317-2.931-3.483-6.121-7.025-9.574-10.624-3.455-3.597-6.8-6.911-10.034-9.942Z"/>
    <path class="st0" d="M547.568,1218.724h119.879v12.385h-119.879v-12.385ZM550.846,1148.958h112.665v12.271h-112.665v-12.271ZM560.683,1166.684h92.991v46.018h-92.991v-46.018ZM575.898,1177.706v6.817h61.907v-6.817h-61.907ZM575.898,1194.749v6.931h61.907v-6.931h-61.907ZM598.588,1139.641h16.264v106.807h-16.264v-106.807Z"/>
    <path class="st0" d="M763.191,1147.14h15.477v40.905c0,4.47-.219,9.356-.656,14.658-.439,5.303-1.291,10.624-2.558,15.964-1.268,5.34-3.148,10.436-5.64,15.283s-5.75,9.165-9.771,12.953c-.787-.909-1.967-1.931-3.541-3.068-1.574-1.136-3.17-2.235-4.787-3.295-1.619-1.062-2.996-1.894-4.131-2.5,3.584-3.409,6.427-7.176,8.525-11.305,2.099-4.128,3.65-8.408,4.656-12.84,1.004-4.431,1.66-8.863,1.967-13.294.305-4.431.459-8.653.459-12.669v-40.792ZM771.978,1200.203h81.45v12.839h-81.45v-12.839ZM772.241,1147.14h80.4v13.067h-80.4v-13.067ZM772.241,1173.388h80.662v12.726h-80.662v-12.726ZM803.587,1152.367h15.87v92.491h-15.87v-92.491ZM847.132,1147.14h15.739v83.06c0,3.636-.524,6.457-1.574,8.465-1.049,2.006-2.931,3.54-5.64,4.602-2.623,1.06-5.99,1.742-10.099,2.045-4.111.302-9.181.415-15.214.341-.262-1.818-.918-4.016-1.967-6.59-1.049-2.576-2.099-4.733-3.148-6.477,2.535.076,5.07.133,7.607.171,2.535.039,4.787.056,6.755.056h4.263c1.224,0,2.076-.188,2.558-.568.48-.378.722-1.097.722-2.159v-82.946Z"/>
    <path class="st0" d="M962.288,1194.408l9.837,2.954c-.875,4.167-2.033,8.541-3.476,13.124-1.443,4.584-3.148,8.882-5.115,12.896-1.967,4.016-4.263,7.386-6.886,10.113-.613-2.046-1.553-4.431-2.82-7.159-1.268-2.727-2.472-5.037-3.607-6.931,1.748-1.969,3.41-4.336,4.984-7.102,1.574-2.764,2.994-5.718,4.263-8.862,1.266-3.143,2.207-6.154,2.82-9.033ZM952.057,1149.299l10.886-2.272c1.224,3.863,2.427,8.03,3.607,12.498,1.18,4.471,2.033,8.334,2.558,11.59l-11.411,2.613c-.262-2.196-.701-4.696-1.312-7.499-.613-2.801-1.291-5.681-2.033-8.635-.744-2.954-1.508-5.718-2.295-8.295ZM952.32,1177.478h44.725v12.726h-44.725v-12.726ZM969.239,1139.641h13.772v106.694h-13.772v-106.694ZM988.52,1194.749c.611.607,1.574,1.667,2.885,3.182,1.312,1.516,2.709,3.182,4.197,4.999,1.486,1.818,2.841,3.505,4.066,5.056,1.223,1.554,2.053,2.67,2.492,3.352l-9.968,9.771c-.613-1.438-1.4-3.124-2.361-5.056-.963-1.931-2.033-3.938-3.214-6.022-1.18-2.083-2.295-4.014-3.345-5.795-1.049-1.779-2.012-3.275-2.885-4.488l8.132-5ZM989.831,1147.254l12.853,3.522c-1.226,2.653-2.492,5.417-3.804,8.295-1.311,2.88-2.558,5.624-3.738,8.238-1.18,2.613-2.34,4.905-3.476,6.874l-9.575-3.068c.961-2.196,1.945-4.676,2.951-7.443,1.004-2.764,1.922-5.605,2.754-8.522.83-2.915,1.508-5.548,2.033-7.897ZM1005.701,1190.659h14.165v20.566c0,3.789-.285,7.86-.853,12.215-.57,4.357-1.705,8.618-3.41,12.783s-4.177,7.84-7.411,11.022c-.701-.834-1.75-1.818-3.148-2.954-1.4-1.136-2.799-2.255-4.197-3.352-1.4-1.099-2.623-1.875-3.673-2.329,2.623-2.727,4.546-5.662,5.771-8.806,1.224-3.143,1.988-6.344,2.295-9.601.305-3.256.459-6.324.459-9.204v-20.339ZM999.537,1176.115h74.892v9.772h-74.892v-9.772ZM1001.504,1147.936h71.219v9.658h-71.219v-9.658ZM1004.783,1162.139h65.317v9.09h-65.317v-9.09ZM1013.964,1205.884h45.774v8.863h-45.774v-8.863ZM1013.964,1220.201h45.774v8.863h-45.774v-8.863ZM1014.358,1190.659h43.282v9.999h-43.282v-9.999ZM1028.785,1139.528h15.214v42.041h-15.214v-42.041ZM1053.574,1190.659h14.69v43.291c0,2.878-.416,5.113-1.246,6.704-.832,1.591-2.34,2.841-4.525,3.75-2.187.833-4.853,1.363-8.001,1.591-3.148.227-6.82.302-11.017.227-.351-1.667-.918-3.504-1.705-5.511-.787-2.008-1.574-3.769-2.361-5.284,2.447.077,4.853.114,7.214.114h4.721c.873,0,1.463-.132,1.771-.398.305-.265.459-.699.459-1.307v-43.177Z"/>
    <path class="st0" d="M1159.549,1194.863h50.234v50.791h-15.739v-37.724h-19.543v38.405h-14.952v-51.472ZM1166.107,1227.473h34.495v13.067h-34.495v-13.067ZM1177.649,1144.073h77.383v41.246h-77.383v-41.246ZM1192.863,1157.139v15.226h46.168v-15.226h-46.168ZM1220.8,1194.863h51.939v50.904h-15.739v-37.837h-21.116v38.405h-15.083v-51.472ZM1228.013,1227.473h36.725v13.067h-36.725v-13.067Z"/>
  </g>
  <g>
    <path class="st0" d="M528.215,276.412c.013-.044.024-.09.035-.134,8.667,18.585,27.506,31.472,49.364,31.472h192.123l-3.939,6.175-.365-.194-19.79,31.783-25.937,40.646c10.803,9.072,20.342,19.842,28.177,32.145l53.018,83.243,24.967-40.097,129.033-202.46c9.456-13.474,22.45-28.933,40.008-43.707,32.601-27.431,65.602-39.609,85.273-45.203H391.83c19.671,5.595,52.672,17.772,85.273,45.203,25.817,21.724,41.791,44.943,51.113,61.129Z"/>
    <path class="st0" d="M569.89,764.792v-.002h8.039c-.006-.026-.013-.052-.02-.079,31.242-.816,60.526-14.37,81.273-37.112l.263-.456.739.393,34.342-55.152-77.068-121.01-11.515,18.493-.152-.246-25.68,41.735-34.424,55.283.174.093-3.59,5.639c-4.675,6.928-10.311,14.474-17.069,22.25l-27.691-43.479c-20.403-32.04-55.377-51.755-93.221-52.744.003-.017.008-.032.011-.048h-163.355c19.672,5.595,52.672,17.773,85.273,45.204,19.105,16.075,32.808,32.961,42.424,47.219l6.59,10.347c.731,1.219,1.437,2.414,2.099,3.564.017-.064.033-.127.05-.191l38.209,59.998c-.332.097-.692.207-1.016.299h1.207v.002h154.108Z"/>
    <path class="st0" d="M1013.023,388.588c.004.017.008.034.013.05-37.775,1.046-72.671,20.751-93.044,52.741l-93.972,147.553-99.859-156.796c-20.941-32.882-57.225-52.791-96.21-52.791h-91.52l210.534,330.576-86.32,135.537c-.016-.064-.032-.128-.048-.191-.664,1.152-1.37,2.349-2.102,3.569l-6.585,10.339c-9.617,14.258-23.32,31.146-42.425,47.222-32.6,27.431-65.602,39.609-85.274,45.204h163.355c-.004-.016-.008-.032-.012-.048,37.843-.989,72.817-20.704,93.222-52.744l268.321-421.311c9.456-13.474,22.451-28.933,40.007-43.705,32.6-27.431,65.602-39.609,85.274-45.204h-163.355Z"/>
  </g>
  <g>
    <g>
      <path class="st0" d="M185.149,1074.86c.682-2.002,1.101-3.718,1.626-5.775h12.479c-.996,4.632-2.151,8.806-3.671,13.381-9.229,1.488-18.3,2.117-27.266,2.117s-17.829-.629-26.585-2.117c.473-6.519,1.311-12.582,2.57-19.101,1.259-6.521,2.831-12.582,4.877-19.102,9.332-1.486,18.457-2.115,27.423-2.115s17.775.457,26.532,1.658c-.315,4.803-.786,9.15-1.624,13.782h-12.533c.315-1.944.525-3.718.682-5.719-4.824-.629-9.857-.742-14.787-.742-4.982,0-10.276.113-15.31.742-1.102,3.947-1.993,7.55-2.78,11.496-.786,3.946-1.258,7.549-1.73,11.495,4.824.629,10.068.744,15.049.744,4.929,0,10.015-.115,15.049-.744Z"/>
      <path class="st0" d="M224.413,1083.954h-10.958l7.026-36.088-5.139-4.117.21-.972h32.091c7.917,0,17.932.113,25.798,1.2-.158,4.061-.368,7.892-1.154,11.953-.944,4.747-2.045,9.665-4.037,14.698-3.933.228-8.337.629-12.637.801l12.06,12.524h-13.999l-18.457-18.93.209-1.202h5.821c6.501,0,12.165-.056,17.828-.342.682-2.231,1.258-4.404,1.678-6.635.419-2.173.682-4.002.838-6.118-5.086-.228-9.805-.228-15.52-.228h-15.101l-6.555,33.455Z"/>
      <path class="st0" d="M314.067,1042.377h1.626c4.457,0,8.494.115,13.161.571l9.753,41.006h-11.012l-2.149-8.636h-32.352l-5.454,8.636h-11.01l22.495-35.973-5.139-3.888.158-1.03c5.978-.343,13.056-.686,19.925-.686ZM308.404,1051.241l-10.12,15.9h25.117l-3.881-15.9c-1.258-.113-3.775-.228-5.505-.228s-4.195.115-5.611.228Z"/>
      <path class="st0" d="M351.669,1083.954l7.026-36.088-5.192-3.888.21-1.03c6.187-.228,14.891-.571,23.491-.744h.892c2.306,0,4.613-.056,6.868-.056,8.179,0,15.941.171,23.962.8l-1.678,8.578c-5.924-.685-13.055-.742-19.82-.742-5.348,0-12.321.113-18.405.571l-2.045,10.522h26.428l-1.468,7.606h-26.48l-2.779,14.47h-11.012Z"/>
      <path class="st0" d="M470.201,1051.869c-11.116-.457-17.094-.629-21.394-.686l-6.344,32.771h-11.484l6.345-32.771c-4.3.057-10.434.23-21.655.686l1.678-8.864c9.28-.571,18.405-.801,27.476-.801,9.123,0,18.142.23,27.16.801l-1.782,8.864Z"/>
      <path class="st0" d="M489.543,1083.954h-11.012l7.026-36.088-5.139-4.117.21-.972h16.936l-8.021,41.176Z"/>
      <path class="st0" d="M563.002,1083.868h-11.431l-21.342-32.027c-1.73-.113-3.46-.171-5.348-.171l-6.239,32.198h-11.431l6.973-35.915-5.295-4.289.209-.972h7.76c7.026,0,13.686.171,21.919.686l15.94,24.534,4.929-25.22h11.379l-8.023,41.176Z"/>
      <path class="st0" d="M623.921,1074.719c.629-1.373,1.206-3.718,1.993-7.493h-11.902l1.363-6.977h23.595c-2.412,11.953-4.037,17.9-5.611,22.532-9.332,1.258-18.457,1.716-27.528,1.716s-18.037-.458-26.899-1.716c.525-6.634,1.311-12.867,2.622-19.501,1.311-6.749,2.937-13.21,5.034-19.959,9.334-.915,18.457-1.258,27.528-1.258,9.334,0,18.615.286,27.686,1.2l-1.626,8.521c-7.079-.629-15.468-.742-22.6-.742-6.658,0-14.839.056-21.551.742-1.153,3.947-2.045,7.55-2.831,11.496-.787,3.946-1.206,7.549-1.626,11.439,4.929.685,10.959.8,16.045.8,5.034,0,11.168-.115,16.307-.8Z"/>
    </g>
    <g>
      <path class="st0" d="M736.006,1059.162l4.404.23c.21,4.117-.157,8.12-.944,12.238-.786,4.117-1.939,8.064-3.775,12.238-8.914.401-18.142.629-26.794.629-5.82,0-13.686-.401-26.217-.629l7.026-36.088-5.244-4.059.158-.972c8.127-.401,19.716-.516,30.465-.516,7.393,0,15.31.057,22.914.458.315,3.718.157,7.32-.525,10.923-.367,1.887-.838,3.718-1.468,5.547ZM694.583,1077.234c5.034.343,9.805.458,15.625.458,6.24,0,11.693-.115,17.146-.343.682-1.946,1.154-3.718,1.521-5.719.367-1.944.682-3.775.682-5.719-3.985-.228-8.075-.228-12.375-.228h-20.345l-2.254,11.552ZM698.2,1058.648h19.034c2.517,0,4.982,0,7.918-.172.524-1.658,1.049-3.202,1.363-4.861s.419-2.916.524-4.575c-4.194-.23-8.39-.23-13.265-.23-5.086,0-9.334.172-13.634.343l-1.94,9.494Z"/>
      <path class="st0" d="M764.154,1083.868h-10.958l7.026-36.088-5.139-4.117.21-.972h32.091c7.917,0,17.932.113,25.798,1.2-.158,4.061-.368,7.892-1.154,11.953-.944,4.747-2.045,9.665-4.037,14.698-3.933.228-8.337.629-12.637.801l12.06,12.524h-13.999l-18.457-18.93.209-1.202h5.821c6.501,0,12.165-.056,17.828-.342.682-2.231,1.258-4.404,1.678-6.635.419-2.173.682-4.002.838-6.118-5.086-.228-9.805-.228-15.52-.228h-15.101l-6.555,33.455Z"/>
      <path class="st0" d="M834.827,1083.868h-11.012l7.026-36.088-5.139-4.117.21-.972h16.936l-8.021,41.176Z"/>
      <path class="st0" d="M858.736,1050.298l.525-2.517-5.139-4.117.21-.972h16.936l-1.52,7.606c-1.521,7.949-3.093,16.871-4.3,24.82,4.037.629,8.442.744,12.585.744s8.599-.115,12.846-.744c.577-1.658,1.049-3.317,1.415-4.918h11.064c-.996,4.347-2.149,8.407-3.671,13.04-7.97.972-15.678,1.258-23.333,1.258-7.814,0-15.207-.286-22.862-1.258,1.31-10.637,3.198-22.304,5.243-32.941Z"/>
      <path class="st0" d="M921.192,1050.298l.525-2.517-5.139-4.117.21-.972h16.936l-1.52,7.606c-1.521,7.949-3.093,16.871-4.3,24.82,4.037.629,8.442.744,12.585.744s8.599-.115,12.846-.744c.577-1.658,1.049-3.317,1.415-4.918h11.064c-.996,4.347-2.149,8.407-3.671,13.04-7.97.972-15.678,1.258-23.333,1.258-7.814,0-15.207-.286-22.862-1.258,1.31-10.637,3.198-22.304,5.243-32.941Z"/>
      <path class="st0" d="M988.158,1083.868h-11.012l7.026-36.088-5.139-4.117.21-.972h16.936l-8.021,41.176Z"/>
      <path class="st0" d="M1035.557,1042.291h1.626c4.457,0,8.494.115,13.161.571l9.753,41.006h-11.012l-2.149-8.636h-32.352l-5.454,8.636h-11.01l22.495-35.973-5.139-3.888.158-1.03c5.978-.343,13.056-.686,19.925-.686ZM1029.894,1051.155l-10.12,15.9h25.117l-3.881-15.9c-1.258-.113-3.775-.228-5.505-.228s-4.194.115-5.611.228Z"/>
      <path class="st0" d="M1129.212,1083.868h-11.431l-21.342-32.027c-1.73-.113-3.46-.171-5.348-.171l-6.239,32.198h-11.431l6.973-35.915-5.295-4.289.209-.972h7.76c7.026,0,13.686.171,21.919.686l15.94,24.534,4.929-25.22h11.379l-8.023,41.176Z"/>
      <path class="st0" d="M1188.611,1074.775c.682-2.002,1.101-3.718,1.626-5.775h12.479c-.996,4.632-2.151,8.806-3.671,13.381-9.229,1.488-18.3,2.117-27.266,2.117s-17.829-.629-26.585-2.117c.473-6.519,1.311-12.582,2.57-19.101,1.259-6.521,2.831-12.582,4.877-19.102,9.332-1.486,18.457-2.115,27.423-2.115s17.775.457,26.532,1.658c-.315,4.803-.786,9.15-1.624,13.782h-12.533c.315-1.944.525-3.718.682-5.719-4.824-.629-9.857-.742-14.787-.742-4.982,0-10.276.113-15.31.742-1.102,3.947-1.993,7.55-2.78,11.496-.786,3.946-1.258,7.549-1.73,11.495,4.824.629,10.068.744,15.049.744,4.929,0,10.015-.115,15.049-.744Z"/>
      <path class="st0" d="M1269.403,1075.403l-1.626,8.294c-8.337.571-16.307.8-24.434.8-8.862,0-17.881-.228-26.48-.8l7.026-35.917-5.192-3.888.21-1.03c5.82-.228,15.154-.571,23.962-.686h.473c3.198-.057,6.344-.113,9.438-.113h.261c7.603,0,14.945.228,22.548.8l-1.626,8.292c-6.555-.629-14.472-.8-21.131-.8-6.03,0-12.533.171-18.509.286l-1.888,9.55h27.633l-1.153,6.233h-27.686l-1.835,9.379c6.449.23,13.371.401,19.768.401s13.79-.171,20.24-.801Z"/>
    </g>
  </g>
</svg>