<?xml version="1.0" encoding="UTF-8"?>
<svg id="_圖層_1" data-name="圖層_1" xmlns="http://www.w3.org/2000/svg" version="1.1" viewBox="0 0 1417.323 1417.323">
  <!-- Generator: Adobe Illustrator 30.3.0, SVG Export Plug-In . SVG Version: 2.1.3 Build 182)  -->
  <defs>
    <style>
      .st0 {
        fill: #103057;
      }
    </style>
  </defs>
  <path class="st0" d="M484.471,355.282c.016-.055.029-.111.043-.167,10.768,23.091,34.174,39.101,61.332,39.101h238.698l-4.895,7.672-.453-.241-24.588,39.488-32.224,50.5c13.422,11.271,25.273,24.652,35.008,39.937l65.871,103.423,31.019-49.818,160.313-251.541c11.748-16.74,27.892-35.947,49.707-54.302,40.504-34.081,81.505-49.211,105.945-56.162H315.023c24.439,6.951,65.441,22.081,105.945,56.162,32.076,26.99,51.922,55.839,63.504,75.949Z"/>
  <path class="st0" d="M536.248,962.057v-.002h9.988c-.008-.032-.016-.064-.025-.098,38.816-1.014,75.199-17.853,100.976-46.109l.326-.566.918.488,42.668-68.522-95.751-150.346-14.307,22.976-.189-.306-31.906,51.852-42.769,68.685.217.115-4.461,7.006c-5.809,8.607-12.81,17.982-21.207,27.644l-34.404-54.019c-25.349-39.807-68.802-64.301-115.82-65.53.004-.021.01-.04.014-.06H127.559c24.441,6.951,65.441,22.082,105.945,56.163,23.736,19.972,40.761,40.952,52.709,58.666l8.187,12.855c.908,1.515,1.785,2.999,2.607,4.428.021-.079.041-.158.062-.237l47.472,74.543c-.412.12-.859.257-1.262.371h1.5v.002h191.468Z"/>
  <path class="st0" d="M1086.807,494.652c.005.021.01.042.016.063-46.933,1.3-90.288,25.782-115.6,65.526l-116.753,183.323-124.068-194.807c-26.018-40.853-71.098-65.589-119.533-65.589h-113.706l261.573,410.716-107.246,168.394c-.02-.079-.04-.159-.06-.238-.824,1.431-1.703,2.918-2.612,4.434l-8.181,12.845c-11.949,17.714-28.973,38.696-52.71,58.669-40.503,34.081-81.506,49.212-105.946,56.162h202.957c-.005-.02-.01-.04-.015-.059,47.017-1.229,90.47-25.723,115.822-65.53l333.369-523.447c11.749-16.74,27.894-35.947,49.706-54.3,40.503-34.081,81.505-49.212,105.946-56.162h-202.957Z"/>
</svg>