<?xml version="1.0" encoding="UTF-8"?>
<svg id="_圖層_1" data-name="圖層_1" xmlns="http://www.w3.org/2000/svg" version="1.1" viewBox="0 0 1417.323 1417.323">
  <!-- Generator: Adobe Illustrator 30.3.0, SVG Export Plug-In . SVG Version: 2.1.3 Build 182)  -->
  <defs>
    <style>
      .st0 {
        fill: #103057;
      }
    </style>
  </defs>
  <g>
    <path class="st0" d="M166.39,1157.684h15.083c-.787,3.562-1.816,7.198-3.082,10.908-1.268,3.712-3.039,7.386-5.312,11.022-2.275,3.636-5.181,7.045-8.722,10.226-3.541,3.182-7.935,6.022-13.181,8.522-.525-1.061-1.334-2.255-2.427-3.579-1.094-1.324-2.252-2.631-3.476-3.92-1.225-1.287-2.406-2.273-3.541-2.954,4.459-1.893,8.132-4.071,11.017-6.533,2.885-2.461,5.246-5.074,7.082-7.84,1.836-2.764,3.256-5.511,4.263-8.237,1.004-2.727,1.771-5.264,2.295-7.613ZM249.676,1136.777l11.673,9.999c-6.996,1.136-14.821,2.179-23.477,3.125-8.657.948-17.641,1.724-26.953,2.329-9.312.607-18.559,1.099-27.74,1.477-9.181.38-17.838.645-25.969.795-.701-1.136-1.596-2.499-2.689-4.09-1.095-1.591-2.209-3.162-3.345-4.716-1.137-1.552-2.187-2.821-3.148-3.806,8.568.076,17.51.039,26.822-.114,9.312-.151,18.536-.455,27.674-.909,9.136-.454,17.75-1.023,25.838-1.705,8.087-.682,15.192-1.477,21.313-2.386ZM151.045,1100.758h106.501v32.724h-106.501v-32.724ZM166.128,1112.575v8.976h15.214v-8.976h-15.214ZM167.702,1177.341l8.001-8.749c2.099,1.289,4.349,2.747,6.755,4.375,2.404,1.63,4.699,3.238,6.886,4.829,2.185,1.59,3.935,3.03,5.246,4.318l-8.263,9.658c-1.311-1.363-3.016-2.878-5.115-4.545-2.099-1.666-4.328-3.389-6.689-5.17-2.361-1.779-4.636-3.352-6.82-4.716ZM195.77,1112.575v8.976h15.608v-8.976h-15.608ZM196.556,1152.57l9.706-8.522,5.902,1.477v58.517h-15.608v-51.472ZM233.674,1155.07h15.345c-.613,3.789-1.531,7.669-2.754,11.647-1.226,3.977-2.908,7.897-5.05,11.76-2.144,3.863-4.898,7.519-8.263,10.965-3.367,3.447-7.63,6.533-12.788,9.26-1.049-1.667-2.537-3.579-4.459-5.738-1.924-2.159-3.804-3.844-5.64-5.056,4.371-1.969,7.978-4.298,10.821-6.988,2.84-2.688,5.115-5.529,6.82-8.522,1.705-2.991,2.994-5.983,3.869-8.976.873-2.991,1.574-5.775,2.099-8.351ZM225.674,1112.575v8.976h16.002v-8.976h-16.002ZM244.954,1166.887c1.398,2.122,3.213,4.488,5.443,7.102,2.23,2.613,4.742,5.095,7.542,7.443,2.797,2.349,5.64,4.357,8.525,6.022-1.049.682-2.23,1.61-3.541,2.784-1.312,1.175-2.58,2.386-3.804,3.636-1.226,1.25-2.23,2.404-3.017,3.465-2.974-2.045-5.881-4.563-8.722-7.556-2.843-2.991-5.423-6.059-7.738-9.203-2.318-3.143-4.177-5.926-5.574-8.352l10.886-5.34Z"/>
    <path class="st0" d="M350.011,1119.506l11.542,1.363c-.262,3.258-.656,6.818-1.18,10.681-.525,3.863-1.203,7.669-2.033,11.419-.832,3.75-1.77,7.101-2.82,10.056l-11.804-3.636c.961-2.574,1.857-5.585,2.689-9.033.83-3.446,1.574-6.988,2.23-10.624.656-3.636,1.115-7.045,1.377-10.226ZM361.421,1097.008h15.083v106.694h-15.083v-106.694ZM373.75,1117.119l8.657-2.613c1.135,2.349,2.207,4.868,3.213,7.556,1.004,2.69,1.879,5.266,2.623,7.726.742,2.462,1.289,4.641,1.639,6.533l-9.181,3.182c-.351-1.893-.875-4.128-1.574-6.704-.701-2.574-1.508-5.244-2.426-8.011-.918-2.764-1.902-5.321-2.951-7.67ZM406.54,1161.661h15.608c-.701,5.985-1.881,11.609-3.541,16.873-1.662,5.266-4.459,10.019-8.394,14.26-3.935,4.242-9.575,7.878-16.919,10.908-.613-1.136-1.465-2.368-2.558-3.693-1.094-1.326-2.23-2.633-3.41-3.92-1.18-1.289-2.383-2.312-3.607-3.068,6.119-2.347,10.733-5.094,13.837-8.238,3.103-3.142,5.246-6.684,6.427-10.624,1.18-3.938,2.033-8.105,2.558-12.499ZM410.212,1098.03l14.558,3.75c-2.361,4.167-5.094,8.277-8.197,12.328-3.105,4.054-6.384,7.822-9.837,11.306-3.455,3.485-6.931,6.553-10.427,9.203-.875-.833-2.033-1.798-3.476-2.897-1.443-1.097-2.931-2.196-4.46-3.295-1.531-1.097-2.865-1.949-4-2.557,5.158-3.332,10.034-7.499,14.624-12.499,4.591-4.999,8.329-10.113,11.214-15.339ZM397.097,1126.209h57.054v37.269h-57.054v-37.269ZM412.049,1138.14v13.407h26.494v-13.407h-26.494ZM428.05,1160.183h15.739v25.906c0,1.667.152,2.709.459,3.125.305.417.984.625,2.033.625h5.902c.873,0,1.508-.321,1.902-.966.393-.642.699-1.969.918-3.977.217-2.006.371-5.017.459-9.033,1.049.682,2.381,1.363,4,2.045,1.617.682,3.3,1.289,5.05,1.818,1.748.531,3.279.985,4.591,1.363-.351,5.454-1.095,9.697-2.23,12.726-1.137,3.029-2.734,5.15-4.787,6.363-2.055,1.211-4.787,1.818-8.197,1.818h-10.362c-4.197,0-7.41-.494-9.64-1.477-2.23-.986-3.761-2.633-4.591-4.943-.832-2.31-1.246-5.397-1.246-9.26v-26.134ZM429.362,1104.166l10.886-6.363c3.322,2.803,6.755,5.928,10.296,9.374,3.541,3.448,6.841,6.857,9.903,10.226,3.06,3.371,5.509,6.383,7.345,9.033l-12.067,7.613c-1.574-2.727-3.826-5.832-6.755-9.317-2.931-3.483-6.121-7.025-9.574-10.624-3.455-3.597-6.8-6.911-10.034-9.942Z"/>
    <path class="st0" d="M550.419,1176.205h119.879v12.385h-119.879v-12.385ZM553.698,1106.439h112.665v12.271h-112.665v-12.271ZM563.535,1124.164h92.991v46.018h-92.991v-46.018ZM578.75,1135.186v6.817h61.907v-6.817h-61.907ZM578.75,1152.229v6.931h61.907v-6.931h-61.907ZM601.44,1097.122h16.264v106.807h-16.264v-106.807Z"/>
    <path class="st0" d="M766.042,1104.62h15.477v40.905c0,4.47-.219,9.356-.656,14.658-.439,5.303-1.291,10.624-2.558,15.964-1.268,5.34-3.148,10.436-5.64,15.283s-5.75,9.165-9.771,12.953c-.787-.909-1.967-1.931-3.541-3.068-1.574-1.136-3.17-2.235-4.787-3.295-1.619-1.062-2.996-1.894-4.131-2.5,3.584-3.409,6.427-7.176,8.525-11.305,2.099-4.128,3.65-8.408,4.656-12.84,1.004-4.431,1.66-8.863,1.967-13.294.305-4.431.459-8.653.459-12.669v-40.792ZM774.83,1157.684h81.45v12.839h-81.45v-12.839ZM775.092,1104.62h80.4v13.067h-80.4v-13.067ZM775.092,1130.868h80.662v12.726h-80.662v-12.726ZM806.439,1109.847h15.87v92.491h-15.87v-92.491ZM849.984,1104.62h15.739v83.06c0,3.636-.524,6.457-1.574,8.465-1.049,2.006-2.931,3.54-5.64,4.602-2.623,1.06-5.99,1.742-10.099,2.045-4.111.302-9.181.415-15.214.341-.262-1.818-.918-4.016-1.967-6.59-1.049-2.576-2.099-4.733-3.148-6.477,2.535.076,5.07.133,7.607.171,2.535.039,4.787.056,6.755.056h4.263c1.224,0,2.076-.188,2.558-.568.48-.378.722-1.097.722-2.159v-82.946Z"/>
    <path class="st0" d="M965.14,1151.889l9.837,2.954c-.875,4.167-2.033,8.541-3.476,13.124-1.443,4.584-3.148,8.882-5.115,12.896-1.967,4.016-4.263,7.386-6.886,10.113-.613-2.046-1.553-4.431-2.82-7.159-1.268-2.727-2.472-5.037-3.607-6.931,1.748-1.969,3.41-4.336,4.984-7.102,1.574-2.764,2.994-5.718,4.263-8.862,1.266-3.143,2.207-6.154,2.82-9.033ZM954.909,1106.779l10.886-2.272c1.224,3.863,2.427,8.03,3.607,12.498,1.18,4.471,2.033,8.334,2.558,11.59l-11.411,2.613c-.262-2.196-.701-4.696-1.312-7.499-.613-2.801-1.291-5.681-2.033-8.635-.744-2.954-1.508-5.718-2.295-8.295ZM955.172,1134.959h44.725v12.726h-44.725v-12.726ZM972.091,1097.122h13.772v106.694h-13.772v-106.694ZM991.371,1152.229c.611.607,1.574,1.667,2.885,3.182,1.312,1.516,2.709,3.182,4.197,4.999,1.486,1.818,2.841,3.505,4.066,5.056,1.223,1.554,2.053,2.67,2.492,3.352l-9.968,9.771c-.613-1.438-1.4-3.124-2.361-5.056-.963-1.931-2.033-3.938-3.214-6.022-1.18-2.083-2.295-4.014-3.345-5.795-1.049-1.779-2.012-3.275-2.885-4.488l8.132-5ZM992.683,1104.734l12.853,3.522c-1.226,2.653-2.492,5.417-3.804,8.295-1.311,2.88-2.558,5.624-3.738,8.238-1.18,2.613-2.34,4.905-3.476,6.874l-9.575-3.068c.961-2.196,1.945-4.676,2.951-7.443,1.004-2.764,1.922-5.605,2.754-8.522.83-2.915,1.508-5.548,2.033-7.897ZM1008.553,1148.139h14.165v20.566c0,3.789-.285,7.86-.853,12.215-.57,4.357-1.705,8.618-3.41,12.783s-4.177,7.84-7.411,11.022c-.701-.834-1.75-1.818-3.148-2.954-1.4-1.136-2.799-2.255-4.197-3.352-1.4-1.099-2.623-1.875-3.673-2.329,2.623-2.727,4.546-5.662,5.771-8.806,1.224-3.143,1.988-6.344,2.295-9.601.305-3.256.459-6.324.459-9.204v-20.339ZM1002.389,1133.595h74.892v9.772h-74.892v-9.772ZM1004.356,1105.416h71.219v9.658h-71.219v-9.658ZM1007.635,1119.619h65.317v9.09h-65.317v-9.09ZM1016.816,1163.365h45.774v8.863h-45.774v-8.863ZM1016.816,1177.682h45.774v8.863h-45.774v-8.863ZM1017.21,1148.139h43.282v9.999h-43.282v-9.999ZM1031.637,1097.008h15.214v42.041h-15.214v-42.041ZM1056.426,1148.139h14.69v43.291c0,2.878-.416,5.113-1.246,6.704-.832,1.591-2.34,2.841-4.525,3.75-2.187.833-4.853,1.363-8.001,1.591-3.148.227-6.82.302-11.017.227-.351-1.667-.918-3.504-1.705-5.511-.787-2.008-1.574-3.769-2.361-5.284,2.447.077,4.853.114,7.214.114h4.721c.873,0,1.463-.132,1.771-.398.305-.265.459-.699.459-1.307v-43.177Z"/>
    <path class="st0" d="M1162.401,1152.343h50.234v50.791h-15.739v-37.724h-19.543v38.405h-14.952v-51.472ZM1168.959,1184.954h34.495v13.067h-34.495v-13.067ZM1180.501,1101.553h77.383v41.246h-77.383v-41.246ZM1195.715,1114.62v15.226h46.168v-15.226h-46.168ZM1223.652,1152.343h51.939v50.904h-15.739v-37.837h-21.116v38.405h-15.083v-51.472ZM1230.865,1184.954h36.725v13.067h-36.725v-13.067Z"/>
  </g>
  <g>
    <g>
      <g>
        <path class="st0" d="M830.942,844.84c.56-1.356.904-2.518,1.335-3.912h10.248c-.818,3.138-1.766,5.965-3.014,9.064-7.579,1.008-15.028,1.434-22.39,1.434s-14.641-.426-21.831-1.434c.388-4.416,1.077-8.523,2.11-12.938,1.034-4.417,2.325-8.523,4.005-12.939,7.663-1.007,15.156-1.433,22.519-1.433s14.597.309,21.787,1.123c-.258,3.254-.646,6.198-1.334,9.336h-10.291c.258-1.317.431-2.518.56-3.874-3.961-.426-8.095-.503-12.142-.503-4.091,0-8.439.077-12.572.503-.905,2.674-1.636,5.114-2.283,7.787-.646,2.673-1.033,5.113-1.421,7.786,3.961.426,8.267.504,12.358.504,4.048,0,8.224-.078,12.358-.504Z"/>
        <path class="st0" d="M863.185,851h-8.998l5.77-24.445-4.22-2.789.173-.658h26.352c6.501,0,14.725.077,21.185.813-.13,2.751-.302,5.346-.948,8.096-.775,3.216-1.679,6.547-3.315,9.956-3.23.155-6.846.426-10.377.543l9.903,8.484h-11.496l-15.156-12.823.172-.814h4.78c5.339,0,9.989-.038,14.64-.231.56-1.512,1.033-2.983,1.378-4.495.344-1.472.56-2.711.688-4.145-4.176-.155-8.052-.155-12.745-.155h-12.401l-5.383,22.662Z"/>
        <path class="st0" d="M936.805,822.836h1.335c3.66,0,6.975.078,10.807.387l8.009,27.777h-9.042l-1.765-5.85h-26.566l-4.479,5.85h-9.041l18.472-24.367-4.22-2.634.13-.697c4.909-.232,10.722-.465,16.362-.465ZM932.155,828.84l-8.31,10.77h20.625l-3.187-10.77c-1.033-.077-3.1-.155-4.521-.155s-3.445.078-4.607.155Z"/>
        <path class="st0" d="M967.683,851l5.77-24.445-4.263-2.634.173-.697c5.08-.155,12.228-.387,19.29-.504h.732c1.894,0,3.788-.038,5.64-.038,6.717,0,13.09.116,19.677.542l-1.378,5.811c-4.865-.464-10.721-.503-16.276-.503-4.392,0-10.118.077-15.113.387l-1.679,7.128h21.701l-1.205,5.152h-21.744l-2.282,9.802h-9.042Z"/>
        <path class="st0" d="M1065.018,829.266c-9.128-.309-14.037-.426-17.568-.465l-5.209,22.198h-9.43l5.21-22.198c-3.531.039-8.568.156-17.782.465l1.378-6.004c7.621-.387,15.113-.543,22.562-.543,7.492,0,14.898.156,22.303.543l-1.464,6.004Z"/>
        <path class="st0" d="M1080.9,851h-9.042l5.77-24.445-4.22-2.789.173-.658h13.907l-6.587,27.892Z"/>
        <path class="st0" d="M1141.222,850.942h-9.387l-17.525-21.694c-1.421-.077-2.842-.116-4.392-.116l-5.123,21.81h-9.387l5.726-24.328-4.348-2.905.172-.658h6.372c5.77,0,11.238.116,17.999.465l13.089,16.619,4.048-17.084h9.344l-6.588,27.892Z"/>
        <path class="st0" d="M1191.247,844.744c.517-.93.991-2.518,1.636-5.075h-9.774l1.119-4.726h19.376c-1.98,8.096-3.315,12.125-4.607,15.263-7.663.852-15.156,1.162-22.605,1.162s-14.811-.31-22.089-1.162c.431-4.494,1.077-8.716,2.153-13.21,1.077-4.572,2.411-8.949,4.134-13.52,7.664-.62,15.156-.852,22.605-.852,7.664,0,15.286.194,22.735.813l-1.335,5.772c-5.813-.426-12.702-.503-18.559-.503-5.468,0-12.185.038-17.697.503-.947,2.674-1.679,5.114-2.325,7.787-.647,2.673-.991,5.113-1.335,7.748,4.048.464,8.999.542,13.176.542,4.134,0,9.171-.078,13.39-.542Z"/>
      </g>
      <g>
        <path class="st0" d="M804.156,886.249l3.617.156c.173,2.789-.129,5.5-.775,8.29-.646,2.789-1.592,5.463-3.1,8.29-7.32.271-14.898.426-22.003.426-4.779,0-11.238-.271-21.529-.426l5.77-24.445-4.306-2.75.13-.658c6.674-.271,16.19-.349,25.017-.349,6.071,0,12.572.039,18.816.31.258,2.518.129,4.959-.431,7.399-.301,1.278-.688,2.518-1.205,3.757ZM770.14,898.491c4.134.232,8.052.31,12.831.31,5.124,0,9.602-.078,14.08-.232.56-1.318.948-2.518,1.249-3.874.301-1.317.56-2.557.56-3.874-3.273-.155-6.631-.155-10.162-.155h-16.707l-1.851,7.825ZM773.11,885.901h15.63c2.067,0,4.091,0,6.502-.117.43-1.123.861-2.169,1.119-3.292s.344-1.975.43-3.099c-3.444-.156-6.889-.156-10.893-.156-4.176,0-7.664.117-11.195.232l-1.593,6.431Z"/>
        <path class="st0" d="M827.27,902.985h-8.998l5.77-24.445-4.22-2.789.173-.658h26.352c6.501,0,14.725.077,21.185.813-.13,2.751-.302,5.346-.948,8.096-.775,3.216-1.679,6.547-3.315,9.956-3.23.155-6.846.426-10.377.543l9.903,8.484h-11.496l-15.156-12.823.172-.814h4.78c5.339,0,9.989-.038,14.64-.231.56-1.512,1.033-2.983,1.378-4.495.344-1.472.56-2.711.688-4.145-4.176-.155-8.052-.155-12.745-.155h-12.401l-5.383,22.662Z"/>
        <path class="st0" d="M885.304,902.985h-9.042l5.77-24.445-4.22-2.789.173-.658h13.907l-6.587,27.892Z"/>
        <path class="st0" d="M904.937,880.245l.431-1.705-4.22-2.789.173-.658h13.907l-1.248,5.152c-1.249,5.385-2.54,11.428-3.531,16.813,3.315.426,6.932.504,10.334.504s7.061-.078,10.549-.504c.474-1.123.861-2.247,1.162-3.331h9.085c-.818,2.944-1.765,5.695-3.014,8.833-6.545.658-12.875.852-19.16.852-6.416,0-12.487-.194-18.773-.852,1.076-7.206,2.626-15.108,4.305-22.314Z"/>
        <path class="st0" d="M956.224,880.245l.431-1.705-4.22-2.789.173-.658h13.907l-1.248,5.152c-1.249,5.385-2.54,11.428-3.531,16.813,3.315.426,6.932.504,10.334.504s7.061-.078,10.549-.504c.474-1.123.861-2.247,1.162-3.331h9.085c-.818,2.944-1.765,5.695-3.014,8.833-6.545.658-12.875.852-19.16.852-6.416,0-12.487-.194-18.773-.852,1.076-7.206,2.626-15.108,4.305-22.314Z"/>
        <path class="st0" d="M1011.214,902.985h-9.042l5.77-24.445-4.22-2.789.173-.658h13.907l-6.587,27.892Z"/>
        <path class="st0" d="M1050.136,874.821h1.335c3.66,0,6.975.078,10.807.387l8.009,27.777h-9.042l-1.765-5.85h-26.566l-4.479,5.85h-9.041l18.472-24.367-4.22-2.634.13-.697c4.909-.232,10.722-.465,16.362-.465ZM1045.486,880.826l-8.31,10.77h20.625l-3.187-10.77c-1.033-.077-3.1-.155-4.521-.155s-3.444.078-4.607.155Z"/>
        <path class="st0" d="M1127.043,902.985h-9.387l-17.525-21.694c-1.421-.077-2.842-.116-4.392-.116l-5.123,21.81h-9.387l5.726-24.328-4.348-2.905.172-.658h6.372c5.77,0,11.238.116,17.999.465l13.089,16.619,4.048-17.084h9.344l-6.588,27.892Z"/>
        <path class="st0" d="M1175.819,896.825c.56-1.356.904-2.518,1.335-3.912h10.248c-.818,3.138-1.766,5.965-3.014,9.064-7.579,1.008-15.028,1.434-22.39,1.434s-14.641-.426-21.831-1.434c.388-4.416,1.077-8.523,2.11-12.938,1.034-4.417,2.325-8.523,4.005-12.939,7.663-1.007,15.156-1.433,22.519-1.433s14.597.309,21.787,1.123c-.258,3.254-.646,6.198-1.334,9.336h-10.291c.258-1.317.431-2.518.56-3.874-3.961-.426-8.095-.503-12.142-.503-4.091,0-8.439.077-12.572.503-.905,2.674-1.636,5.114-2.283,7.787-.646,2.673-1.033,5.113-1.421,7.786,3.961.426,8.267.504,12.358.504,4.048,0,8.224-.078,12.358-.504Z"/>
        <path class="st0" d="M1242.163,897.251l-1.335,5.618c-6.846.387-13.39.542-20.064.542-7.277,0-14.683-.155-21.744-.542l5.77-24.329-4.263-2.634.173-.697c4.779-.155,12.444-.387,19.677-.465h.388c2.626-.039,5.209-.077,7.75-.077h.215c6.244,0,12.272.155,18.516.542l-1.335,5.617c-5.383-.426-11.884-.542-17.352-.542-4.952,0-10.291.116-15.199.194l-1.55,6.469h22.691l-.947,4.222h-22.735l-1.507,6.353c5.296.156,10.98.271,16.233.271s11.324-.116,16.62-.543Z"/>
      </g>
    </g>
    <g>
      <path class="st0" d="M451.256,316.676c.012-.043.023-.088.034-.132,8.483,18.191,26.922,30.804,48.317,30.804h188.047l-3.856,6.044-.357-.19-19.37,31.109-25.387,39.784c10.574,8.88,19.91,19.421,27.579,31.463l51.893,81.477,24.437-39.247,126.296-198.166c9.255-13.188,21.974-28.319,39.159-42.78,31.909-26.849,64.21-38.768,83.464-44.245H317.764c19.253,5.476,51.555,17.395,83.464,44.245,25.27,21.263,40.904,43.99,50.028,59.833Z"/>
      <path class="st0" d="M492.046,794.696v-.002h7.869c-.006-.025-.012-.051-.02-.077,30.58-.799,59.242-14.065,79.549-36.325l.257-.446.723.385,33.614-53.982-75.433-118.443-11.271,18.101-.149-.241-25.136,40.849-33.694,54.11.171.091-3.514,5.519c-4.576,6.781-10.092,14.167-16.707,21.778l-27.104-42.557c-19.97-31.36-54.203-50.657-91.243-51.625.003-.016.008-.032.011-.047h-159.89c19.255,5.476,51.555,17.396,83.464,44.245,18.699,15.734,32.112,32.262,41.524,46.217l6.45,10.128c.715,1.193,1.406,2.363,2.054,3.488.017-.062.032-.125.049-.187l37.399,58.725c-.325.095-.677.202-.994.292h1.182v.002h150.839Z"/>
      <path class="st0" d="M925.779,426.473c.004.016.008.033.013.049-36.974,1.024-71.129,20.311-91.07,51.622l-91.979,144.423-97.741-153.47c-20.497-32.184-56.011-51.671-94.169-51.671h-89.578l206.069,323.564-84.489,132.662c-.015-.063-.031-.125-.047-.187-.65,1.128-1.341,2.299-2.058,3.493l-6.445,10.12c-9.413,13.955-22.825,30.485-41.525,46.22-31.909,26.849-64.211,38.769-83.465,44.245h159.89c-.004-.016-.008-.031-.012-.047,37.041-.968,71.272-20.265,91.245-51.625l262.63-412.374c9.256-13.188,21.975-28.319,39.158-42.778,31.909-26.849,64.21-38.769,83.465-44.245h-159.89Z"/>
    </g>
  </g>
</svg>