<?xml version="1.0" encoding="UTF-8"?>
<svg id="_圖層_1" data-name="圖層_1" xmlns="http://www.w3.org/2000/svg" version="1.1" viewBox="0 0 1417.323 1417.323">
  <!-- Generator: Adobe Illustrator 30.3.0, SVG Export Plug-In . SVG Version: 2.1.3 Build 182)  -->
  <defs>
    <style>
      .st0 {
        fill: #f3f7fa;
      }
    </style>
  </defs>
  <g>
    <path class="st0" d="M873.342,918.244l5.893,1.264c-2.374,3.307-4.994,6.551-7.861,9.733-2.867,3.182-5.986,6.209-9.358,9.079-3.371,2.871-7.04,5.514-11.004,7.932-3.963,2.418-8.231,4.516-12.8,6.295-.094-.405-.252-.874-.477-1.404-.224-.531-.459-1.06-.701-1.592-.244-.53-.475-.982-.694-1.356,4.143-1.528,8.025-3.393,11.649-5.592,3.623-2.2,6.983-4.609,10.08-7.23,3.097-2.622,5.919-5.389,8.466-8.307,2.547-2.917,4.816-5.857,6.806-8.822ZM846.507,926.013h37.892l-1.526,4.539h-37.883l1.517-4.539ZM845.834,949.131l4.649,1.356c-.832,1.342-1.761,2.692-2.789,4.048-1.028,1.357-2.152,2.661-3.372,3.908-1.22,1.248-2.565,2.355-4.035,3.323l-3.849-2.715c1.265-.812,2.468-1.755,3.612-2.831,1.143-1.077,2.208-2.23,3.193-3.463.986-1.232,1.849-2.44,2.59-3.627ZM855.083,920.116l6.108-1.778c.768.905,1.506,1.935,2.21,3.089.705,1.154,1.192,2.184,1.463,3.088l-6.588,2.012c-.157-.904-.55-1.957-1.182-3.158-.631-1.201-1.302-2.285-2.012-3.253ZM848.5,943.047h38.949l-1.465,4.352h-38.94l1.456-4.352ZM852.876,950.535l5.161-.515c.072,1.497-.048,3.135-.357,4.914-.309,1.778-.684,3.322-1.123,4.633l-5.519.562c.358-.842.666-1.818.923-2.925.256-1.107.475-2.246.657-3.416.181-1.169.268-2.253.258-3.252ZM860.402,934.577h26.111l-1.464,4.352h-26.105l1.458-4.352ZM861.618,950.113l5.057-.889c.286,1.31.46,2.731.52,4.259.06,1.528.016,2.854-.131,3.977l-5.348,1.077c.196-1.154.281-2.519.256-4.095-.026-1.576-.143-3.019-.353-4.329ZM870.559,949.271l4.653-1.217c.478.968.893,2.036,1.245,3.206.352,1.17.538,2.176.561,3.018l-5.001,1.404c.025-.873-.103-1.911-.388-3.112-.284-1.201-.642-2.3-1.071-3.299ZM884.982,943.047h6.138c-.206.499-.372.905-.495,1.216-.125.312-.243.579-.354.796-1.378,3.182-2.592,5.796-3.644,7.839-1.052,2.044-2.003,3.651-2.855,4.821-.852,1.169-1.674,2.019-2.464,2.55-.8.562-1.591.951-2.37,1.169-.781.218-1.645.374-2.594.468-.823.062-1.887.101-3.191.117-1.304.015-2.691-.008-4.16-.07.193-.687.28-1.459.263-2.317-.018-.858-.165-1.614-.441-2.269,1.256.125,2.454.203,3.59.234,1.136.031,1.996.031,2.579,0,.496,0,.917-.031,1.264-.094.345-.062.688-.202,1.03-.421.525-.311,1.125-.959,1.799-1.942.675-.983,1.484-2.393,2.428-4.235.944-1.84,2.019-4.211,3.225-7.113l.252-.749ZM883.194,926.013h5.684c-.999,1.717-2.059,3.502-3.18,5.358-1.122,1.857-2.143,3.471-3.064,4.844l-5.159-.702c.851-1.279,1.808-2.792,2.874-4.539,1.065-1.747,2.013-3.4,2.844-4.961ZM884.16,934.577h5.681c-.96,1.716-1.989,3.494-3.087,5.335-1.098,1.841-2.096,3.415-2.995,4.726l-5.261-.562c.9-1.31,1.87-2.831,2.911-4.562,1.041-1.732,1.958-3.376,2.75-4.937Z"/>
    <path class="st0" d="M911.548,951.003h52.178l-1.563,4.585h-52.165l1.55-4.585ZM922.812,922.269h48.925l-1.546,4.539h-48.914l1.535-4.539ZM924.696,929.429h40.354l-6.373,18.719h-40.315l6.334-18.719ZM929.229,933.501l-1.141,3.369h28.231l1.146-3.369h-28.236ZM926.804,940.661l-1.157,3.415h28.221l1.162-3.415h-28.226ZM945.22,918.338h6.375l-14.841,43.709h-6.36l14.827-43.709Z"/>
    <path class="st0" d="M984.879,955.543h51.477l-1.709,4.96h-51.464l1.696-4.96ZM997.07,927.277h46.157l-1.692,4.913h-46.146l1.681-4.913ZM995.322,940.941h40.559l-1.676,4.867h-40.549l1.666-4.867ZM1013.869,921.146l6.091-2.855c1,.656,2.051,1.412,3.155,2.27,1.103.858,2.129,1.716,3.079,2.574.948.859,1.697,1.662,2.244,2.41l-6.563,3.229c-.47-.749-1.146-1.569-2.027-2.457-.882-.889-1.844-1.794-2.887-2.714-1.044-.92-2.074-1.74-3.091-2.457ZM1015.375,931.488h6.772l-9.162,26.675h-6.763l9.152-26.675Z"/>
    <path class="st0" d="M1061.911,946.464h52.706l-1.631,4.68h-52.694l1.618-4.68ZM1076.822,951.096l3.827,3.182c-1.958.906-4.102,1.826-6.432,2.762-2.331.936-4.693,1.825-7.085,2.668-2.393.842-4.653,1.575-6.779,2.199-.209-.499-.522-1.116-.937-1.849-.415-.733-.817-1.365-1.207-1.895,1.99-.562,4.137-1.247,6.444-2.059,2.306-.811,4.537-1.654,6.694-2.527,2.156-.873,3.981-1.7,5.475-2.48ZM1086.906,918.525l1.288,4.071c-2.158.594-4.406,1.139-6.741,1.639-2.336.499-4.506.936-6.511,1.31.058-.498.066-1.077.025-1.732-.041-.656-.124-1.247-.246-1.779,1.999-.467,4.105-1.021,6.317-1.661,2.212-.64,4.168-1.256,5.867-1.849ZM1074.722,922.035l5.132,1.264-7.509,24.662h-5.505l7.882-25.926ZM1075.197,929.289h9.701l-1.428,4.118h-9.699l1.426-4.118ZM1072.577,937.852h9.582l-1.444,4.165h-9.58l1.442-4.165ZM1086.34,935.56l4.421.655c-.771,1.561-1.663,3.081-2.673,4.562-1.012,1.482-2.117,2.738-3.315,3.768-.313-.311-.81-.671-1.491-1.076-.682-.405-1.271-.718-1.769-.936,1.127-.936,2.065-2.013,2.812-3.229.747-1.217,1.419-2.464,2.016-3.744ZM1091.108,918.666h5.227l-4.028,11.606h6.773l-1.366,3.931h-11.994l5.388-15.537ZM1092.861,922.222h11.427l-1.448,4.165h-11.425l1.445-4.165ZM1095.849,930.318h5.166l-4.18,12.028c-.304.874-.661,1.544-1.072,2.012-.412.467-1.048.842-1.91,1.123-.814.25-1.764.397-2.85.444-1.087.047-2.338.07-3.753.07.058-.498.053-1.037-.013-1.615-.068-.577-.16-1.083-.276-1.52.83.031,1.606.055,2.328.07.72.016,1.221.008,1.499-.023.267,0,.463-.039.585-.117.122-.078.222-.226.298-.444l4.177-12.028ZM1090.321,954.325l4.603-3.509c1.738.718,3.49,1.505,5.256,2.363,1.765.858,3.424,1.693,4.976,2.503,1.552.812,2.857,1.561,3.918,2.246l-5.406,3.838c-.973-.719-2.189-1.505-3.648-2.363-1.459-.859-3.018-1.732-4.677-2.621-1.659-.89-3.332-1.709-5.022-2.457ZM1106.457,920.444h10.682l-1.515,4.352h-10.68l1.513-4.352ZM1100.585,937.993h9.639l-1.45,4.165h-9.637l1.448-4.165ZM1103.997,929.336h9.758l-1.45,4.165h-9.756l1.448-4.165ZM1113.578,920.444h5.685c-.793,2.277-1.658,4.68-2.596,7.207-.937,2.526-1.879,5.038-2.825,7.534-.947,2.496-1.867,4.867-2.764,7.113-.897,2.246-1.727,4.243-2.488,5.99h-5.735c.771-1.778,1.63-3.806,2.576-6.084.945-2.276,1.9-4.664,2.864-7.16.964-2.495,1.902-4.999,2.815-7.51.912-2.511,1.734-4.875,2.467-7.09Z"/>
    <path class="st0" d="M1134.062,951.049c2.037-.249,4.414-.569,7.13-.959,2.717-.389,5.508-.803,8.377-1.24l-.992,3.978c-2.589.405-5.16.819-7.716,1.24-2.555.421-4.93.819-7.124,1.193l.326-4.212ZM1145.451,920.116h18.55l-1.575,4.493h-18.546l1.571-4.493ZM1147.201,922.503h4.479l-10.336,29.529h-4.472l10.329-29.529ZM1147.131,930.085h9.012l-1.443,4.118h-9.01l1.441-4.118ZM1143.791,939.631h9.008l-1.443,4.118h-9.006l1.441-4.118ZM1156.29,922.456h4.651l-13.86,39.544h-4.642l13.851-39.544ZM1159.136,932.19h35.126l-1.501,4.259h-35.118l1.493-4.259ZM1163.533,922.925h17.112l-1.365,3.884h-17.108l1.362-3.884ZM1162.655,927.557l4.388-.562c.065.905.037,1.912-.083,3.019-.122,1.107-.261,2.051-.42,2.831l-4.722.702c.196-.779.378-1.732.542-2.855.164-1.123.262-2.168.296-3.135ZM1158.963,938.414h4.705l-7.111,20.264h-4.7l7.106-20.264ZM1160.741,938.414h13.656l-6.333,18.018h-4.586l5.112-14.554h-9.064l1.215-3.463ZM1156.3,951.892h11.009l-1.184,3.369h-11.007l1.182-3.369ZM1158.738,945.106h11.013l-1.2,3.416h-11.011l1.198-3.416ZM1169.268,919.18l5.301-.702c.141.906.262,1.896.363,2.972.1,1.076.109,2.005.027,2.785l-5.595.889c.082-.78.11-1.732.084-2.855-.028-1.123-.087-2.153-.18-3.089ZM1173.26,926.949l4.551.609c-.795,1.061-1.572,2.129-2.333,3.206-.761,1.076-1.426,1.988-1.995,2.738l-3.861-.609c.602-.843,1.244-1.826,1.925-2.949.682-1.123,1.252-2.121,1.712-2.995ZM1187.348,938.134l4.012,1.966c-2.444,3.244-5.17,6.232-8.176,8.962-3.007,2.73-6.144,5.155-9.412,7.276-3.269,2.122-6.55,3.9-9.842,5.335-.212-.374-.567-.835-1.063-1.38-.495-.547-.965-1.006-1.406-1.38,3.146-1.341,6.27-3.026,9.371-5.054,3.102-2.028,6.075-4.368,8.92-7.02,2.845-2.652,5.377-5.553,7.596-8.704ZM1183.537,918.291h5.284c-1.427,4.056-2.723,7.956-3.887,11.699-1.165,3.744-2.147,7.215-2.947,10.412-.801,3.199-1.411,5.991-1.83,8.377-.42,2.386-.586,4.243-.498,5.568.086,1.327.449,2.006,1.089,2.036.42,0,.96-.53,1.621-1.591.66-1.061,1.397-2.527,2.209-4.399.157.312.419.655.785,1.029.364.375.746.703,1.144.983.397.281.703.499.916.656-1.257,2.371-2.435,4.196-3.535,5.475-1.1,1.278-2.086,2.152-2.958,2.621-.872.467-1.633.702-2.282.702-1.632-.031-2.773-.749-3.426-2.152-.652-1.404-.902-3.408-.75-6.014.151-2.605.63-5.702,1.432-9.289.803-3.587,1.863-7.581,3.18-11.981,1.317-4.398,2.801-9.109,4.453-14.133ZM1187.963,922.363l4.792-1.217c.267.874.489,1.818.668,2.832.178,1.014.32,1.997.425,2.948.104.952.146,1.786.123,2.503l-5.16,1.45c.072-.749.07-1.615-.004-2.597-.076-.983-.181-1.989-.315-3.019-.136-1.029-.312-1.996-.529-2.901Z"/>
    <path class="st0" d="M1243.295,918.385h7.064c-.631,1.561-1.413,3.439-2.346,5.639-.935,2.2-2.096,4.609-3.486,7.23-1.39,2.622-3.096,5.328-5.12,8.12-2.023,2.793-4.418,5.553-7.183,8.283-2.766,2.731-5.964,5.311-9.597,7.745-3.633,2.433-7.806,4.586-12.517,6.458-.304-.655-.784-1.349-1.441-2.082-.658-.734-1.403-1.38-2.236-1.943,4.542-1.715,8.534-3.681,11.975-5.896,3.441-2.215,6.441-4.586,9-7.114,2.559-2.526,4.731-5.069,6.518-7.627,1.786-2.557,3.285-5.031,4.496-7.417,1.21-2.387,2.211-4.563,3.004-6.528.793-1.966,1.416-3.588,1.87-4.867ZM1247.701,924.094c-.135.594-.352,1.639-.655,3.136-.302,1.497-.529,3.268-.68,5.311-.152,2.044-.081,4.212.214,6.505.294,2.292.926,4.578,1.894,6.856.968,2.277,2.438,4.406,4.409,6.387,1.97,1.982,4.545,3.659,7.725,5.031-1.117.562-2.219,1.24-3.304,2.036-1.086.796-2.005,1.552-2.757,2.269-3.327-1.497-5.986-3.338-7.98-5.521-1.995-2.184-3.483-4.531-4.463-7.043-.982-2.511-1.591-5.047-1.831-7.605-.239-2.557-.273-4.968-.102-7.23.171-2.261.412-4.235.723-5.92.311-1.685.542-2.902.692-3.651l6.113-.562Z"/>
    <path class="st0" d="M787.326,1007.635c1.944-.343,4.165-.749,6.665-1.217,2.5-.467,5.146-.975,7.94-1.52,2.792-.546,5.555-1.084,8.286-1.615l-.792,4.773c-3.815.812-7.668,1.623-11.558,2.433-3.891.812-7.388,1.529-10.491,2.153l-.049-5.007ZM792.879,992.66h20.826l-1.593,4.774h-20.82l1.588-4.774ZM803.626,983.581h6.239l-12.588,37.766c-.416,1.248-.922,2.223-1.517,2.925-.596.702-1.418,1.255-2.467,1.662-1.087.404-2.334.662-3.741.772-1.407.109-3.139.164-5.195.164.141-.656.185-1.443.13-2.363-.056-.921-.165-1.709-.328-2.363,1.132.031,2.241.046,3.327.046h2.199c.723,0,1.184-.295,1.382-.889l12.56-37.719ZM816.26,987.231h31.191l-1.695,5.054h-31.182l1.687-5.054ZM830.701,989.056h6.638l-10.562,31.542c-.491,1.466-1.118,2.628-1.881,3.486-.764.858-1.846,1.504-3.249,1.942-1.365.436-3.017.71-4.957.819-1.941.109-4.262.164-6.965.164.101-.531.127-1.123.08-1.779-.048-.655-.131-1.318-.25-1.989-.119-.67-.271-1.24-.458-1.708,1.236.063,2.48.101,3.731.117,1.251.016,2.372.023,3.363.023h2.057c.581-.03,1.016-.132,1.302-.304.286-.171.497-.459.632-.866l10.519-31.448Z"/>
    <path class="st0" d="M872.241,987.372h5.837l-4.951,14.694c-.621,1.842-1.365,3.854-2.234,6.037-.87,2.184-1.879,4.415-3.026,6.693-1.149,2.277-2.438,4.492-3.867,6.644-1.43,2.153-3.01,4.103-4.74,5.85-.248-.28-.624-.608-1.126-.982-.502-.374-1.019-.734-1.551-1.077-.532-.343-1-.593-1.405-.749,1.601-1.591,3.027-3.337,4.277-5.241,1.25-1.903,2.363-3.853,3.34-5.85.977-1.996,1.831-3.97,2.564-5.92.733-1.95,1.377-3.751,1.934-5.405l4.947-14.694ZM875.332,987.372h45.44l-1.492,4.399h-45.43l1.482-4.399ZM883.999,1008.992l5.08,1.545c-1.844,1.623-3.95,3.175-6.317,4.657-2.367,1.482-4.861,2.832-7.48,4.048-2.62,1.217-5.252,2.246-7.897,3.089-.065-.374-.163-.819-.293-1.334-.132-.515-.275-1.021-.43-1.52-.156-.498-.334-.905-.533-1.217,2.249-.686,4.5-1.512,6.75-2.48,2.249-.966,4.344-2.035,6.282-3.205,1.938-1.17,3.55-2.363,4.838-3.58ZM877.286,999.398h3.546l-.6,1.779c-.347,1.029-.899,2.098-1.653,3.205-.755,1.108-2.012,2.067-3.772,2.879-.19-.343-.521-.718-.994-1.123-.473-.405-.906-.703-1.301-.89.953-.342,1.703-.756,2.248-1.24.544-.483.972-.99,1.284-1.52.312-.531.537-.998.674-1.404l.568-1.685ZM872.753,1007.588h41.505l-1.349,3.978h-41.496l1.341-3.978ZM877.881,994.579h17.734l-1.281,3.791h-17.731l1.278-3.791ZM884.967,992.567h4.635l-4.756,14.086h-4.631l4.752-14.086ZM877.61,1014.374h30.804l-4.363,12.87h-6.225l3.138-9.266h-18.684l-3.145,9.312h-5.882l4.358-12.916ZM878.505,1022.048h24.222l-1.253,3.698h-24.217l1.248-3.698ZM889.094,999.492h3.431l-1.123,3.322c-.116.344-.169.586-.159.726.01.14.147.21.415.21.114,0,.123,0,.028,0-.095,0-.086,0,.029,0,.19,0,.497-.007.922-.023.425-.015.78-.054,1.069-.117-.068.312-.153.648-.255,1.006-.102.359-.211.71-.327,1.053-.212.063-.514.11-.905.14-.392.032-.779.047-1.159.047h-1.087c-1.296,0-2.038-.257-2.226-.772-.189-.516-.108-1.287.24-2.317l1.106-3.275ZM894.828,984.377l6.686-.983c.103.936.177,1.989.22,3.159.043,1.17.047,2.145.012,2.925l-7.106,1.216c.093-.842.159-1.856.197-3.041.038-1.186.034-2.277-.009-3.276ZM897.091,999.352h3.374l-.601,1.778c-.348,1.03-.841,2.091-1.477,3.182-.637,1.093-1.573,2.059-2.811,2.902-.162-.311-.493-.656-.995-1.03-.502-.374-.926-.671-1.271-.889.903-.531,1.612-1.217,2.125-2.059.514-.843.881-1.592,1.103-2.246l.554-1.638ZM897.103,994.579h20.08l-1.285,3.791h-20.076l1.281-3.791ZM904.862,992.613h4.634l-4.707,13.9h-4.631l4.704-13.9ZM908.987,999.352h3.546l-1.285,3.79c-.138.406-.192.679-.163.82.029.14.215.21.558.21h1.086c.266,0,.634-.015,1.103-.047.468-.03.845-.077,1.134-.14-.068.312-.149.664-.243,1.053-.095.39-.185.772-.274,1.146-.25.063-.609.11-1.077.141-.468.031-.912.046-1.331.046h-2.173c-1.41,0-2.217-.264-2.418-.795-.202-.531-.118-1.341.253-2.434l1.284-3.79Z"/>
    <path class="st0" d="M957.243,983.301l5.63,1.45c-1.88,2.153-3.936,4.266-6.17,6.341-2.234,2.075-4.498,4.017-6.792,5.826-2.295,1.81-4.515,3.401-6.66,4.774-.335-.249-.772-.562-1.311-.936-.54-.374-1.092-.741-1.656-1.1-.564-.358-1.077-.647-1.536-.865,2.206-1.217,4.413-2.66,6.622-4.329,2.208-1.669,4.332-3.455,6.374-5.358,2.041-1.903,3.873-3.838,5.498-5.803ZM936.495,1006.418h11.663l-.048.14h30.187l.048-.14h11.206l-1.541,4.492h-11.204l.048-.14h-30.18l-.048.14h-11.66l1.529-4.492ZM950.143,996.403h6.121c-.96,2.029-1.991,4.158-3.095,6.388-1.104,2.231-2.215,4.453-3.332,6.669-1.118,2.215-2.205,4.313-3.261,6.294-1.057,1.982-2.022,3.752-2.896,5.311h-6.284c.922-1.591,1.936-3.392,3.041-5.404,1.105-2.013,2.235-4.126,3.39-6.341,1.155-2.215,2.262-4.43,3.322-6.645,1.06-2.215,2.058-4.305,2.996-6.271ZM942.093,1016.667h41.6l-1.508,4.398h-41.59l1.499-4.398ZM953.644,987.98h40.117l-1.541,4.492h-40.107l1.531-4.492ZM953.003,996.403h28.487l-1.507,4.399h-28.48l1.5-4.399ZM953.654,1012.595l4.299-2.714c1.031.437,2.076.952,3.131,1.545,1.055.593,2.028,1.201,2.92,1.825.891.625,1.584,1.216,2.078,1.778l-4.583,3.042c-.446-.592-1.099-1.216-1.961-1.872-.862-.655-1.803-1.302-2.822-1.942-1.02-.639-2.041-1.193-3.062-1.662ZM957.939,1002.722l4.358-2.715c.967.405,1.977.882,3.03,1.427,1.052.547,2.011,1.116,2.876,1.708.864.594,1.549,1.155,2.054,1.686l-4.626,2.995c-.467-.531-1.108-1.107-1.923-1.732-.816-.624-1.723-1.232-2.721-1.826-.999-.592-2.015-1.106-3.047-1.544ZM979.088,996.403h6.063c-.192.562-.36,1.022-.502,1.38-.143.359-.251.649-.325.866-1.714,4.555-3.209,8.416-4.484,11.582-1.276,3.167-2.382,5.757-3.319,7.769-.937,2.012-1.758,3.572-2.46,4.68-.703,1.107-1.369,1.911-1.997,2.41-.894.718-1.75,1.217-2.569,1.497-.82.281-1.727.483-2.721.609-.935.062-2.079.093-3.43.093s-2.746-.016-4.182-.046c.154-.562.225-1.217.215-1.966-.011-.749-.135-1.388-.372-1.919,1.301.094,2.498.156,3.592.187,1.094.031,1.932.031,2.513,0,.495,0,.91-.046,1.247-.14.337-.093.691-.296,1.065-.609.46-.342,1.005-1.045,1.635-2.106.629-1.06,1.385-2.574,2.268-4.539.881-1.965,1.925-4.484,3.13-7.557,1.204-3.073,2.63-6.793,4.279-11.161l.353-1.03Z"/>
    <path class="st0" d="M1012.442,1002.206h52.782l-1.916,5.522h-52.767l1.901-5.522Z"/>
    <path class="st0" d="M1106.162,985.172l6.027,1.263c-2.005,2.684-4.246,5.249-6.721,7.699-2.476,2.449-5.049,4.688-7.719,6.716-2.671,2.028-5.372,3.791-8.104,5.288-.262-.343-.625-.749-1.091-1.217-.466-.468-.951-.936-1.455-1.404-.505-.467-.956-.842-1.353-1.123,3.969-1.872,7.719-4.32,11.253-7.347,3.533-3.025,6.588-6.317,9.164-9.874ZM1106.176,1002.347h6.691c-1.172,2.59-2.505,5.124-4.001,7.604-1.495,2.48-3.332,4.82-5.51,7.02-2.178,2.199-4.865,4.196-8.061,5.99-3.196,1.794-7.112,3.33-11.746,4.609-.103-.468-.277-.983-.519-1.545-.242-.562-.525-1.116-.849-1.662-.324-.546-.674-.99-1.05-1.333,4.166-1.03,7.644-2.293,10.433-3.791,2.788-1.497,5.089-3.151,6.902-4.961,1.812-1.809,3.307-3.72,4.487-5.733,1.178-2.012,2.252-4.078,3.222-6.2ZM1095.989,1000.896h31.397l-1.721,4.914h-31.389l1.713-4.914ZM1116.301,984.33h12.936l-1.638,4.68h-12.933l1.635-4.68ZM1125.384,1000.896h6.405l-.492,1.404c-.12.343-.238.625-.352.842-1.438,3.557-2.697,6.606-3.778,9.149-1.082,2.543-2.044,4.665-2.887,6.365-.844,1.701-1.608,3.042-2.295,4.024-.687.983-1.379,1.709-2.076,2.176-.937.718-1.845,1.217-2.724,1.497-.879.281-1.874.483-2.983.609-1.024.094-2.324.14-3.904.14s-3.215-.031-4.908-.093c.224-.749.311-1.6.263-2.55-.049-.952-.233-1.786-.554-2.503,1.671.125,3.214.203,4.632.233,1.417.032,2.468.047,3.154.047.533,0,.996-.047,1.391-.14.395-.094.787-.264,1.18-.515.637-.405,1.353-1.31,2.15-2.715.796-1.403,1.803-3.493,3.024-6.271,1.219-2.776,2.694-6.364,4.425-10.764l.328-.936ZM1123.399,984.33h6.811c.097,2.34.557,4.594,1.381,6.763.823,2.168,2.008,4.149,3.553,5.943,1.544,1.795,3.415,3.253,5.614,4.376-.54.343-1.191.788-1.954,1.333-.764.547-1.495,1.108-2.192,1.685-.698.578-1.326,1.116-1.881,1.615-2.242-1.434-4.142-3.166-5.699-5.194-1.559-2.028-2.769-4.235-3.63-6.622-.863-2.386-1.383-4.797-1.562-7.23h-1.373l.933-2.668Z"/>
    <path class="st0" d="M1175.205,1004.921h6.576c-1.143,2.59-2.4,5.016-3.77,7.277-1.37,2.262-3.03,4.345-4.977,6.247-1.949,1.904-4.354,3.597-7.219,5.078-2.864,1.481-6.388,2.753-10.568,3.814-.063-.467-.209-.975-.435-1.52-.227-.547-.497-1.077-.81-1.592-.315-.515-.639-.944-.975-1.287,3.713-.811,6.79-1.817,9.232-3.018,2.442-1.2,4.444-2.557,6.006-4.071,1.562-1.513,2.877-3.19,3.946-5.031,1.068-1.841,2.066-3.806,2.994-5.897ZM1162.197,1000.943h51.527l-1.677,4.727h-51.515l1.664-4.727ZM1171.266,987.372l6.146-1.685c.509,1.154.959,2.418,1.353,3.791.393,1.373.702,2.715.926,4.025.224,1.31.321,2.495.29,3.556l-6.642,1.965c.057-1.029.008-2.214-.147-3.556-.157-1.341-.405-2.722-.744-4.141-.339-1.419-.733-2.738-1.182-3.955ZM1190.69,983.581h6.239l-6.832,19.328h-6.233l6.826-19.328ZM1190.612,1004.687h6.232l-5.598,15.817c-.287.812-.339,1.334-.155,1.569.183.233.77.35,1.761.35h5.884c.685,0,1.253-.179,1.704-.538.45-.358.943-1.077,1.478-2.153.533-1.076,1.219-2.691,2.059-4.844.319.281.775.555,1.367.819.591.265,1.2.507,1.828.726.627.218,1.185.39,1.675.515-1.132,2.653-2.22,4.727-3.265,6.224-1.045,1.497-2.184,2.534-3.417,3.112-1.233.578-2.762.866-4.59.866h-7.253c-2.018,0-3.507-.203-4.468-.609-.961-.405-1.489-1.092-1.585-2.059-.096-.967.148-2.276.733-3.931l5.609-15.864ZM1209.212,985.266l5.878,1.826c-1.326,1.372-2.701,2.777-4.125,4.211-1.424,1.435-2.814,2.801-4.168,4.095-1.355,1.295-2.624,2.426-3.804,3.393l-4.723-1.686c1.165-1.029,2.41-2.23,3.735-3.603,1.325-1.373,2.623-2.777,3.894-4.212,1.271-1.434,2.376-2.777,3.314-4.025Z"/>
    <path class="st0" d="M1255.179,1007.214l4.763,1.872c-1.997,1.748-4.161,3.432-6.492,5.054-2.332,1.623-4.766,3.159-7.302,4.609-2.537,1.451-5.101,2.77-7.695,3.955-2.593,1.185-5.15,2.214-7.669,3.088-.176-.467-.434-.975-.772-1.52-.339-.547-.697-1.092-1.074-1.638-.377-.546-.753-.99-1.125-1.334,2.426-.717,4.886-1.583,7.381-2.598,2.493-1.013,4.951-2.136,7.372-3.369,2.42-1.232,4.707-2.542,6.86-3.931,2.153-1.387,4.07-2.785,5.753-4.188ZM1235.157,1005.482h50.944l-1.762,4.914h-50.931l1.749-4.914ZM1286.468,983.862l3.295,4.539c-3.41.467-7.062.889-10.953,1.263-3.892.374-7.878.695-11.959.959-4.082.265-8.149.491-12.201.679-4.053.187-7.984.327-11.794.421.129-.468.212-.998.252-1.592.039-.592.044-1.169.015-1.731-.029-.562-.073-1.03-.13-1.404,3.783-.124,7.644-.28,11.584-.467,3.939-.187,7.825-.413,11.66-.679,3.834-.265,7.478-.562,10.935-.89,3.456-.327,6.553-.694,9.294-1.099ZM1243.342,994.859l5.84-1.778c.764,1.279,1.399,2.707,1.906,4.282.505,1.576.751,2.971.737,4.188l-6.305,1.965c.09-1.216-.074-2.628-.492-4.235-.42-1.606-.982-3.08-1.685-4.422ZM1259.154,993.034l6.216-1.545c.26.874.491,1.802.693,2.785.201.983.323,1.95.364,2.902.041.952.004,1.802-.111,2.55l-6.623,1.731c.249-1.123.32-2.471.216-4.048-.105-1.575-.357-3.033-.755-4.375ZM1258.623,1001.411h6.519l-9.199,25.738h-6.51l9.19-25.738ZM1264.4,1007.167c.679,1.404,1.624,2.785,2.835,4.142,1.21,1.356,2.592,2.66,4.146,3.907,1.553,1.248,3.237,2.371,5.05,3.37,1.814.998,3.677,1.856,5.591,2.574-.58.343-1.261.78-2.041,1.31-.781.531-1.529,1.076-2.244,1.638-.715.562-1.349,1.077-1.896,1.545-1.869-.842-3.683-1.865-5.442-3.065-1.761-1.201-3.403-2.519-4.926-3.955-1.525-1.434-2.883-2.963-4.075-4.585-1.192-1.623-2.172-3.276-2.943-4.961l5.945-1.919ZM1281.952,990.881l5.59,1.966c-1.396,1.341-2.868,2.707-4.413,4.095-1.547,1.388-3.067,2.707-4.562,3.954-1.496,1.248-2.893,2.356-4.192,3.323l-4.436-1.826c1.283-1.029,2.647-2.206,4.095-3.532,1.447-1.326,2.869-2.692,4.269-4.095,1.398-1.404,2.615-2.699,3.651-3.885Z"/>
  </g>
  <g>
    <path class="st0" d="M430.934,408.289c.013-.046.025-.095.037-.142,9.152,19.627,29.048,33.236,52.132,33.236h202.893l-4.16,6.521-.385-.205-20.9,33.565-27.391,42.925c11.409,9.581,21.482,20.954,29.756,33.947l55.99,87.91,26.366-42.345,136.266-213.81c9.986-14.229,23.709-30.555,42.251-46.157,34.428-28.969,69.28-41.829,90.053-47.737H286.903c20.773,5.908,55.625,18.769,90.053,47.737,27.265,22.942,44.133,47.463,53.978,64.556Z"/>
    <path class="st0" d="M474.945,924.048v-.002h8.49c-.007-.027-.013-.055-.022-.083,32.994-.862,63.919-15.175,85.83-39.193l.277-.481.78.415,36.268-58.244-81.389-127.794-12.161,19.53-.161-.26-27.12,44.074-36.354,58.382.184.098-3.792,5.955c-4.937,7.316-10.889,15.285-18.026,23.498l-29.243-45.916c-21.547-33.836-58.482-54.656-98.447-55.7.003-.017.008-.034.012-.051H127.559c20.775,5.908,55.625,18.77,90.053,47.738,20.176,16.976,34.647,34.809,44.802,49.866l6.959,10.927c.772,1.287,1.517,2.549,2.216,3.764.018-.067.035-.134.053-.202l40.352,63.361c-.35.102-.73.218-1.072.315h1.275v.002h162.747Z"/>
    <path class="st0" d="M942.92,526.754c.005.018.009.036.013.053-39.893,1.105-76.745,21.914-98.26,55.698l-99.24,155.825-105.458-165.586c-22.115-34.725-60.433-55.751-101.603-55.751h-96.65l222.337,349.108-91.159,143.135c-.017-.067-.034-.135-.051-.202-.701,1.217-1.447,2.48-2.22,3.769l-6.954,10.919c-10.156,15.057-24.627,32.892-44.804,49.869-34.428,28.969-69.28,41.83-90.054,47.738h172.513c-.004-.017-.008-.034-.013-.05,39.965-1.044,76.899-21.864,98.448-55.7l283.363-444.93c9.986-14.229,23.71-30.555,42.25-46.155,34.428-28.969,69.279-41.83,90.054-47.738h-172.513Z"/>
  </g>
</svg>